<?xml version="1.0" encoding="UTF-8"?>
<!-- Created with Inkscape (http://www.inkscape.org/) -->
<svg width="240.85mm" height="124.06mm" version="1.1" viewBox="0 0 240.85 124.06" xml:space="preserve" xmlns="http://www.w3.org/2000/svg"><g stroke-linecap="round" stroke-linejoin="round"><g><path d="m165.73 37.954-0.24679-2.3446s-4.9359-2.9792-7.016-3.4199-6.4872-0.77564-7.7035-0.61699c-1.2163 0.15866-3.1378 0.40545-3.1907 0.66987-0.0529 0.26442-0.38782 2.5561-0.38782 2.5561z" fill="#323232" stop-color="#000000" stroke="#000" style="paint-order:stroke fill markers"/><path d="m61.646 37.954 0.24679-2.3446s4.9359-2.9792 7.016-3.4199c2.0801-0.44071 6.4872-0.77564 7.7035-0.61699 1.2163 0.15866 3.1378 0.40545 3.1907 0.66987 0.05289 0.26442 0.38782 2.5561 0.38782 2.5561z" fill="#323232" stop-color="#000000" stroke="#000" style="paint-order:stroke fill markers"/><path d="m56.779 121.81c-3.5285-0.31368-8.3466-4.0777-10.554-9.8821-0.30902-6.8275-0.75149-15.73-0.12108-24.901 0.76942-11.193 4.8683-27.087 7.7078-36.992 2.5476-5.5097 3.1739-9.4108 8.1597-11.827 16.379-2.594 35.341-5.5415 51.967-5.7505 18.655 0.8392 32.249 2.4037 50.71 5.2602 6.1311 0.40602 6.2262 8.0012 8.3295 12.628 4.1546 11.873 6.9863 23.603 8.9617 36.697 0.88356 8.1741 1.3353 16.874-0.7888 25.06-2.3661 4.5422-5.9521 9.0357-12.267 9.9846-4.2056-3.2e-4 -6.0604-0.29213-8.035-4.6483-3.469-7.809-6.3023-16.013-10.77-23.306-3.9229-5.3646-10.727-3.7916-16.459-3.7613-16.249 0.3834-28.712 0.17052-44.88 0.254-4.3932 0.2245-6.2909-1.285-10.496 4.3346-2.3689 5.5733-7.1934 16.911-10.469 22.446-2.4393 3.8792-7.6162 4.3069-10.995 4.4031z" fill="#fff" stop-color="#000000" stroke="#343434" style="paint-order:stroke fill markers"/></g><g fill="#323232" stroke="#000"><path d="m68.887 69.199 4.4502-0.05288c0.49096-0.0058 1.0097-0.78976 1.0097-1.092v-5.1847c0-0.3022-0.42143-0.63601-0.79814-0.95093l-2.657-2.2212-2.6746 2.1859c-0.40941 0.3346-0.86865 0.68399-0.86865 0.98618v5.1847c0 0.3022 1.0476 1.1507 1.5385 1.1448z" stop-color="#000000" style="paint-order:stroke fill markers"/><path d="m82.139 55.877-0.05288 4.4502c-0.0058 0.49096-0.78976 1.0097-1.092 1.0097h-5.1847c-0.3022 0-0.63601-0.42143-0.95093-0.79814l-2.2212-2.657 2.1859-2.6746c0.3346-0.40941 0.68399-0.86865 0.98618-0.86865h5.1847c0.3022 0 1.1507 1.0476 1.1448 1.5385z" stop-color="#000000" style="paint-order:stroke fill markers"/><path d="m59.416 59.799 0.05288-4.4502c0.0058-0.49096 0.78976-1.0097 1.092-1.0097h5.1847c0.3022 0 0.63601 0.42143 0.95093 0.79814l2.2212 2.657-2.1859 2.6746c-0.3346 0.40941-0.68399 0.86865-0.98618 0.86865h-5.1847c-0.3022 0-1.1507-1.0476-1.1448-1.5385z" stop-color="#000000" style="paint-order:stroke fill markers"/></g><g transform="translate(24.894 -16.267)" stroke="#000"><ellipse cx="66.862" cy="93.164" rx="7.8031" ry="6.756" fill="#323232" stop-color="#000000" style="paint-order:stroke fill markers"/><circle cx="66.862" cy="90.346" r="6.5815" fill="#323232" stop-color="#000000" style="paint-order:stroke fill markers"/><circle cx="66.862" cy="90.346" r="5.6841" fill="#333" stop-color="#000000" style="paint-order:stroke fill markers"/></g><g transform="translate(15.022 -35.015)" stroke="#000"><ellipse transform="translate(54.048 19.096)" cx="66.862" cy="93.164" rx="7.8031" ry="6.756" fill="#323232" stop-color="#000000" style="paint-order:stroke fill markers"/><circle transform="translate(54.048 19.096)" cx="66.862" cy="90.346" r="6.5815" fill="#323232" stop-color="#000000" style="paint-order:stroke fill markers"/><circle transform="translate(54.048 19.096)" cx="66.862" cy="90.346" r="5.6841" fill="#333" stop-color="#000000" style="paint-order:stroke fill markers"/></g><g fill="#323232" stroke="#000"><g><ellipse cx="146.5" cy="57.65" rx="4.3378" ry="4.2132" stop-color="#000000" style="paint-order:stroke fill markers"/><ellipse cx="156.87" cy="47.329" rx="4.3378" ry="4.2132" stop-color="#000000" style="paint-order:stroke fill markers"/><ellipse cx="166.45" cy="57.9" rx="4.3378" ry="4.2132" stop-color="#000000" style="paint-order:stroke fill markers"/><ellipse cx="156.67" cy="67.921" rx="4.3378" ry="4.2132" stop-color="#000000" style="paint-order:stroke fill markers"/></g><path d="m67.425 67.647v-6.3822l-6.979 7e-6 -0.0014-7.11h6.9804v-6.4241h7.2796l-0.11361 6.4241h6.5344l-1e-5 7.11h-6.4207l4e-6 6.3822z" display="none" stop-color="#000000" style="paint-order:stroke fill markers"/><ellipse transform="rotate(-14.28)" cx="68.56" cy="61.352" rx="1.5954" ry="2.7764" stop-color="#000000" style="paint-order:stroke fill markers"/><ellipse transform="matrix(-.9691 -.24666 -.24666 .9691 0 0)" cx="-152.05" cy="5.3556" rx="1.5954" ry="2.7764" stop-color="#000000" style="paint-order:stroke fill markers"/></g><rect x="144.11" y="55.374" width="4.7866" height="4.5521" fill="none" stop-color="#000000" stroke="#fff" style="paint-order:stroke fill markers"/><g><text x="156.66414" y="70.47187" fill="#ffffff" font-family="Nunito" font-size="10.346px" font-weight="900" stop-color="#000000" stroke-width=".4" text-align="center" text-anchor="middle" style="paint-order:stroke fill markers" xml:space="preserve"><tspan x="156.66414" y="70.47187" fill="#ffffff" stroke-width=".4">x</tspan></text><circle cx="166.45" cy="57.9" r="2.9916" fill="none" stop-color="#000000" stroke="#fff" style="paint-order:stroke fill markers"/><path transform="matrix(.55976 0 0 .55326 91.51 24.277)" d="m121.53 44.828h-4.7561-4.7561l2.378-4.1189 2.378-4.1189 2.378 4.1189z" fill="none" stop-color="#000000" stroke="#fff" stroke-width="1.7969" style="paint-order:stroke fill markers"/></g><path d="m68.887 46.415 4.4502 0.05288c0.49096 0.0058 1.0097 0.78976 1.0097 1.092v5.1847c0 0.3022-0.42143 0.63601-0.79814 0.95093l-2.657 2.2212-2.6746-2.1859c-0.40941-0.3346-0.86865-0.68399-0.86865-0.98618v-5.1847c0-0.3022 1.0476-1.1507 1.5385-1.1448z" fill="#323232" stop-color="#000000" stroke="#000" style="paint-order:stroke fill markers"/><path d="m86.696 36.209c-0.69664 1.8412 0.11781 3.9926 0.21374 5.928 1.0031 5.4599 1.704 11.208 3.6042 16.317 1.0714 1.7174 1.7951 4.7781 4.0999 5.0386 11.139-0.0022 22.296 0.06916 33.446 0.02201 2.4763 0.18614 4.9444-0.35616 6.9483-1.8819 2.4927-1.5183 2.3903-4.6876 3.1414-7.173 1.1649-5.4215 2.5159-10.824 3.2118-16.331 0.0137-1.4963-1.1719-1.8603-2.5863-2.1258-17.36 0.06853-34.719 0.13705-52.079 0.20558z" fill="#323232" stop-color="#000000" stroke="#000" style="paint-order:stroke fill markers"/><g fill="#010101" stroke="#e73c00"><g><path d="m39.253 57.589h31.485" stop-color="#000000" style="paint-order:stroke fill markers"/><path d="m50.168 73.909h41.936" stop-color="#000000" style="paint-order:stroke fill markers"/><path d="m189.36 47.329h-32.509" stop-color="#000000" style="paint-order:stroke fill markers"/><path d="m189.29 57.949h-22.39" stop-color="#000000" style="paint-order:stroke fill markers"/></g><path d="m188.58 68.171h-30.892" stop-color="#000000" style="paint-order:stroke fill markers"/></g><g fill="none" stroke="#e73c00"><path d="m190.96 75.254h-40.287l-3.8504-16.058" stop-color="#000000" style="paint-order:stroke fill markers"/><path d="m185.27 88.816h-49.162l-0.0997-15.157" stop-color="#000000" style="paint-order:stroke fill markers"/><path d="m81.575 42.907v-20.168" stop-color="#000000" style="paint-order:stroke fill markers"/><g><path d="m146.03 42.838v-18.134" stop-color="#000000" style="paint-order:stroke fill markers"/><path d="m54.538 29.283v4.8863h17.451" stop-color="#000000" style="paint-order:stroke fill markers"/><path d="m175.6 28.735v5.1854h-20.044" stop-color="#000000" style="paint-order:stroke fill markers"/></g></g><g fill="#e73c00" font-family="Nunito" font-size="5.6444px" font-weight="900" text-anchor="middle"><text x="25.89039" y="75.974846" stop-color="#000000" text-align="center" style="paint-order:stroke fill markers" xml:space="preserve"><tspan x="25.89039" y="75.974846" fill="#e73c00" font-size="5.6444px">Left Thumbstick</tspan></text><text transform="translate(8.5404 -37.707)" x="172.94806" y="65.534912" stop-color="#000000" text-align="center" style="paint-order:stroke fill markers" xml:space="preserve"><tspan x="172.94806" y="65.534912" fill="#e73c00" font-size="5.6444px">Right Shoulder</tspan></text><text x="50.960732" y="28.2596" stop-color="#000000" text-align="center" style="paint-order:stroke fill markers" xml:space="preserve"><tspan x="50.960732" y="28.2596" fill="#e73c00" font-size="5.6444px">Left Shoulder</tspan></text><text transform="translate(8.5404 -37.707)" x="184.37825" y="115.51417" stop-color="#000000" text-align="center" style="paint-order:stroke fill markers" xml:space="preserve"><tspan x="184.37825" y="115.51417" fill="#e73c00" font-size="5.6444px">X</tspan></text><text transform="translate(8.5404 -37.707)" x="184.29437" y="97.646248" stop-color="#000000" text-align="center" style="paint-order:stroke fill markers" xml:space="preserve"><tspan x="184.29437" y="97.646248" fill="#e73c00" font-size="5.6444px">B</tspan></text><text transform="translate(8.5404 -37.707)" x="184.37244" y="107.86757" stop-color="#000000" text-align="center" style="paint-order:stroke fill markers" xml:space="preserve"><tspan x="184.37244" y="107.86757" fill="#e73c00" font-size="5.6444px">A</tspan></text><text transform="translate(8.5404 -37.707)" x="184.37563" y="87.026039" stop-color="#000000" text-align="center" style="paint-order:stroke fill markers" xml:space="preserve"><tspan x="184.37563" y="87.026039" fill="#e73c00" font-size="5.6444px">Y</tspan></text><text x="145.90405" y="22.193707" stop-color="#000000" text-align="center" style="paint-order:stroke fill markers" xml:space="preserve"><tspan x="145.90405" y="22.193707" fill="#e73c00" font-size="5.6444px">Start</tspan></text><text x="81.479645" y="22.188063" stop-color="#000000" text-align="center" style="paint-order:stroke fill markers" xml:space="preserve"><tspan x="81.479645" y="22.188063" fill="#e73c00" font-size="5.6444px">Back</tspan></text><text x="30.200987" y="59.573421" stop-color="#000000" text-align="center" style="paint-order:stroke fill markers" xml:space="preserve"><tspan x="30.200987" y="59.573421" fill="#e73c00" font-size="5.6444px">DPad</tspan></text><text transform="translate(8.5404 -37.707)" x="203.55904" y="128.41925" stop-color="#000000" text-align="center" style="paint-order:stroke fill markers" xml:space="preserve"><tspan x="203.55904" y="128.41925" fill="#e73c00" font-size="5.6444px">Right Thumbstick</tspan></text></g></g></svg>
