<?xml version="1.0" encoding="UTF-8"?>
<svg width="240.85mm" height="124.06mm" version="1.1" viewBox="0 0 240.85 124.06" xml:space="preserve" xmlns="http://www.w3.org/2000/svg"><g transform="translate(8.5404 -37.707)" stroke="#000" stroke-linecap="round" stroke-linejoin="round"><g fill="#323232"><path d="m58.984 79.926s1.8328-2.2206 2.8905-2.961c1.0577-0.74038 11-4.5481 13.08-4.6891 2.0801-0.14103 5.1474-0.07051 7.0513 1.1635 1.9038 1.234 1.9391 2.0449 1.9391 2.0449z" stop-color="#000000" style="paint-order:stroke fill markers"/><path d="m145.26 79.785s-1.8328-2.2206-2.8905-2.961c-1.0577-0.74038-11-4.5481-13.08-4.6891-2.0801-0.14103-5.1474-0.07051-7.0513 1.1635-1.9038 1.234-1.9391 2.0449-1.9391 2.0449z" stop-color="#000000" style="paint-order:stroke fill markers"/><path d="m84.964 123.47c-0.31908 2.5e-4 -0.5958 2e-3 -0.82217 2e-3l-44.282 22.987 10.577 14.808s1.128-0.3528 2.5735-1.0227c1.4455-0.66987 8.7436-8.4613 10.788-12.904 2.0449-4.4423 7.298-9.3784 10.189-11.846 2.7411-2.34 18.339-1.6702 28.124-1.7446 9.7854 0.0744 25.383-0.59537 28.124 1.7446 2.891 2.468 8.1442 7.404 10.189 11.846 2.0449 4.4423 9.343 12.234 10.788 12.904 1.4455 0.66987 2.574 1.0227 2.574 1.0227l10.577-14.808-44.282-22.987c-2.8804-5e-3 -13.854-0.22139-17.97 5.0255-3.7932-4.8346-13.407-5.0305-17.148-5.0276z" stop-color="#000000" style="paint-order:stroke fill markers"/></g><path d="m50.309 161.2s-11.169-2.7922-12.764-13.612c-1.5955-10.82 0.2493-17.75 1.3961-21.689 1.1468-3.9389 14.21-40.088 14.808-40.736 0.59832-0.64818 3.9389-4.4874 5.2353-5.2353s14.11-6.2325 16.504-5.6342c2.3933 0.59832 6.7311 1.4459 8.2269 1.3961 1.4958-0.04986 36.946 0.04986 38.093-0.14958 1.1468-0.19944 3.2908-1.2964 4.3378-1.1966 1.0471 0.09972 18.049 1.6952 22.537 9.1743s14.061 29.417 15.606 36.298c1.5457 6.8807 6.432 28.171 0.34902 34.054s-10.57 7.1798-10.57 7.1798 1.0969-1.3961-1.0969-4.7367-16.105-22.836-21.589-23.983c-5.4846-1.1468-54.946-2.144-57.588-0.19944-2.6426 1.9445-20.044 20.792-20.542 21.789-0.4986 0.9972-2.8919 4.8863-2.9916 5.4846-0.09972 0.59832 0.04986 1.795 0.04986 1.795z" fill="#fff" stop-color="#000000" style="paint-order:stroke fill markers"/><ellipse cx="92.416" cy="93.338" rx="2.6675" ry="2.3933" fill="#323232" stop-color="#000000" style="paint-order:stroke fill markers"/><ellipse cx="111.94" cy="93.263" rx="2.6675" ry="2.3933" fill="#323232" stop-color="#000000" style="paint-order:stroke fill markers"/><ellipse cx="66.862" cy="93.164" rx="7.8031" ry="6.756" fill="#323232" stop-color="#000000" style="paint-order:stroke fill markers"/><circle cx="66.862" cy="90.346" r="6.5815" fill="#323232" stop-color="#000000" style="paint-order:stroke fill markers"/><circle cx="66.862" cy="90.346" r="5.6841" fill="#333" stop-color="#000000" style="paint-order:stroke fill markers"/><ellipse transform="translate(54.048 19.096)" cx="66.862" cy="93.164" rx="7.8031" ry="6.756" fill="#323232" stop-color="#000000" style="paint-order:stroke fill markers"/><circle transform="translate(54.048 19.096)" cx="66.862" cy="90.346" r="6.5815" fill="#323232" stop-color="#000000" style="paint-order:stroke fill markers"/><circle transform="translate(54.048 19.096)" cx="66.862" cy="90.346" r="5.6841" fill="#333" stop-color="#000000" style="paint-order:stroke fill markers"/><g fill="#323232"><ellipse cx="128.09" cy="92.864" rx="4.3378" ry="4.2132" stop-color="#000000" style="paint-order:stroke fill markers"/><ellipse cx="137.66" cy="101.49" rx="4.3378" ry="4.2132" stop-color="#000000" style="paint-order:stroke fill markers"/><ellipse cx="137.66" cy="85.336" rx="4.3378" ry="4.2132" stop-color="#000000" style="paint-order:stroke fill markers"/><ellipse cx="146.84" cy="92.864" rx="4.3378" ry="4.2132" stop-color="#000000" style="paint-order:stroke fill markers"/><path transform="translate(46.769 40.237)" d="m33.755 83.865v-6.3822l-6.979 7e-6 -0.0014-7.11h6.9804v-6.4241h7.2796l-0.11361 6.4241h6.5344l-2e-6 7.11h-6.4207l4e-6 6.3822z" stop-color="#000000" style="paint-order:stroke fill markers"/><ellipse cx="102.17" cy="81.442" rx="4.5481" ry="3.6314" stop-color="#000000" style="paint-order:stroke fill markers"/></g></g><g fill="#e73c00" font-family="Nunito" font-size="5.6444px" font-weight="900" stroke-linecap="round" stroke-linejoin="round" text-anchor="middle"><text x="25.89039" y="54.634731" stop-color="#000000" text-align="center" style="paint-order:stroke fill markers" xml:space="preserve"><tspan x="25.89039" y="54.634731" fill="#e73c00" font-size="5.6444px">Left Thumbstick</tspan></text><text x="206.01646" y="91.410172" stop-color="#000000" text-align="center" style="paint-order:stroke fill markers" xml:space="preserve"><tspan x="206.01646" y="91.410172" fill="#e73c00" font-size="5.6444px">Right Thumbstick</tspan></text><text x="32.993153" y="78.42054" stop-color="#000000" text-align="center" style="paint-order:stroke fill markers" xml:space="preserve"><tspan x="32.993153" y="78.42054" fill="#e73c00" font-size="5.6444px">DPad</tspan></text><text x="100.86118" y="24.978815" stop-color="#000000" text-align="center" style="paint-order:stroke fill markers" xml:space="preserve"><tspan x="100.86118" y="24.978815" fill="#e73c00" font-size="5.6444px">Back</tspan></text><text x="120.34827" y="24.98587" stop-color="#000000" text-align="center" style="paint-order:stroke fill markers" xml:space="preserve"><tspan x="120.34827" y="24.98587" fill="#e73c00" font-size="5.6444px">Start</tspan></text><text x="182.74452" y="49.618092" stop-color="#000000" text-align="center" style="paint-order:stroke fill markers" xml:space="preserve"><tspan x="182.74452" y="49.618092" fill="#e73c00" font-size="5.6444px">Y</tspan></text><text x="182.74133" y="65.772766" stop-color="#000000" text-align="center" style="paint-order:stroke fill markers" xml:space="preserve"><tspan x="182.74133" y="65.772766" fill="#e73c00" font-size="5.6444px">A</tspan></text><text x="182.66327" y="57.146969" stop-color="#000000" text-align="center" style="paint-order:stroke fill markers" xml:space="preserve"><tspan x="182.66327" y="57.146969" fill="#e73c00" font-size="5.6444px">B</tspan></text><text x="182.74715" y="73.818245" stop-color="#000000" text-align="center" style="paint-order:stroke fill markers" xml:space="preserve"><tspan x="182.74715" y="73.818245" fill="#e73c00" font-size="5.6444px">X</tspan></text><text x="52.157372" y="30.062794" stop-color="#000000" text-align="center" style="paint-order:stroke fill markers" xml:space="preserve"><tspan x="52.157372" y="30.062794" fill="#e73c00" font-size="5.6444px">Left Shoulder</tspan></text><text x="170.61891" y="29.523045" stop-color="#000000" text-align="center" style="paint-order:stroke fill markers" xml:space="preserve"><tspan x="170.61891" y="29.523045" fill="#e73c00" font-size="5.6444px">Right Shoulder</tspan></text></g><g fill="#010101" stroke="#e73c00" stroke-linecap="round" stroke-linejoin="round"><path d="m49.855 52.569h25.808" stop-color="#000000" style="paint-order:stroke fill markers"/><path d="m179.19 47.628h-32.509" stop-color="#000000" style="paint-order:stroke fill markers"/><path d="m179.09 55.157h-23.733" stop-color="#000000" style="paint-order:stroke fill markers"/><path d="m178.41 63.783h-30.892" stop-color="#000000" style="paint-order:stroke fill markers"/></g><g fill="none" stroke="#e73c00" stroke-linecap="round" stroke-linejoin="round"><path d="m180.78 71.266h-40.287l-3.8504-16.058" stop-color="#000000" style="paint-order:stroke fill markers"/><path d="m179.49 89.814h-49.162l-0.0997-18.448" stop-color="#000000" style="paint-order:stroke fill markers"/><path d="m100.96 55.709v-29.816" stop-color="#000000" style="paint-order:stroke fill markers"/><path d="m120.48 55.51v-29.417" stop-color="#000000" style="paint-order:stroke fill markers"/><path d="m55.735 31.477v5.6841h20.642" stop-color="#000000" style="paint-order:stroke fill markers"/><path d="m164.73 30.58v5.1854h-23.634" stop-color="#000000" style="paint-order:stroke fill markers"/></g><path d="m42.03 76.437h49.864" fill="#010101" stop-color="#000000" stroke="#e73c00" stroke-linecap="round" stroke-linejoin="round" style="paint-order:stroke fill markers"/><g fill="#fff" font-family="Nunito" font-size="5.6444px" font-weight="900" stroke-linecap="round" stroke-linejoin="round" text-anchor="middle"><text x="146.19878" y="65.772766" stop-color="#000000" text-align="center" style="paint-order:stroke fill markers" xml:space="preserve"><tspan x="146.19878" y="65.772766" fill="#ffffff" font-family="Nunito" font-weight="900">A</tspan></text><text x="155.31059" y="57.146969" stop-color="#000000" text-align="center" style="paint-order:stroke fill markers" xml:space="preserve"><tspan x="155.31059" y="57.146969">B</tspan></text><text x="136.63029" y="57.146969" stop-color="#000000" text-align="center" style="paint-order:stroke fill markers" xml:space="preserve"><tspan x="136.63029" y="57.146969">X</tspan></text><text x="146.20132" y="49.618092" stop-color="#000000" text-align="center" style="paint-order:stroke fill markers" xml:space="preserve"><tspan x="146.20132" y="49.618092">Y</tspan></text></g></svg>
