<?xml version="1.0" encoding="UTF-8" standalone="no"?>
<!-- Created with Inkscape (http://www.inkscape.org/) -->

<svg
   width="240.85201mm"
   height="124.056mm"
   viewBox="0 0 240.85201 124.056"
   version="1.1"
   id="svg9670"
   xml:space="preserve"
   sodipodi:docname="xbox-controller-back.svg"
   inkscape:version="1.2.2 (732a01da63, 2022-12-09)"
   inkscape:export-filename="xbox-controller-back.png"
   inkscape:export-xdpi="143.6351"
   inkscape:export-ydpi="143.6351"
   xmlns:inkscape="http://www.inkscape.org/namespaces/inkscape"
   xmlns:sodipodi="http://sodipodi.sourceforge.net/DTD/sodipodi-0.dtd"
   xmlns="http://www.w3.org/2000/svg"
   xmlns:svg="http://www.w3.org/2000/svg"><sodipodi:namedview
     id="namedview9672"
     pagecolor="#ffffff"
     bordercolor="#000000"
     borderopacity="0.25"
     inkscape:showpageshadow="2"
     inkscape:pageopacity="0.0"
     inkscape:pagecheckerboard="0"
     inkscape:deskcolor="#d1d1d1"
     inkscape:document-units="mm"
     showgrid="false"
     showguides="true"
     inkscape:zoom="1.8761364"
     inkscape:cx="426.94124"
     inkscape:cy="179.09146"
     inkscape:window-width="3840"
     inkscape:window-height="2054"
     inkscape:window-x="-11"
     inkscape:window-y="-11"
     inkscape:window-maximized="1"
     inkscape:current-layer="layer1"><sodipodi:guide
       position="88.050784,121.5175"
       orientation="0,-1"
       id="guide12671"
       inkscape:locked="false" /></sodipodi:namedview><defs
     id="defs9667" /><g
     inkscape:label="controller"
     inkscape:groupmode="layer"
     id="layer1"
     transform="translate(-39.092457,-81.77491)"><g
       id="g13709"
       transform="translate(58.093178,27.497826)"><path
         style="opacity:1;fill:#ffffff;fill-opacity:1;stroke:#000000;stroke-width:1;stroke-linecap:round;stroke-linejoin:round;paint-order:stroke fill markers;stop-color:#000000"
         d="m 61.926236,84.612577 c 0,0 -11.417961,14.110406 -11.717123,14.958028 -0.299159,0.847625 -3.889086,12.265585 -5.43475,18.398375 -1.545662,6.13279 -4.537268,17.75019 -4.936149,23.93284 -0.39888,6.18266 -0.598321,15.60621 1.745104,19.89418 2.343423,4.28797 6.232512,9.42356 9.174255,9.3737 2.941746,-0.0499 7.179855,0.54846 12.564745,-9.17426 5.38489,-9.72272 12.664464,-23.13508 14.808449,-23.4841 2.143982,-0.34902 47.466803,-2.14399 49.959813,-0.19944 2.493,1.94454 3.54007,2.493 8.47621,10.71992 4.93615,8.22691 13.21293,22.53676 16.75299,21.88858 3.54007,-0.64818 11.31825,-3.54007 12.66447,-10.57034 1.34622,-7.03028 2.34342,-21.34012 -1.34622,-32.95752 -3.68965,-11.6174 -6.63139,-26.62529 -7.8779,-28.420256 -1.2465,-1.794962 -11.96642,-14.509288 -11.96642,-14.509288 z"
         id="path10166"
         inkscape:label="outline"
         sodipodi:nodetypes="csssscsssssssscc" /><path
         style="opacity:1;fill:#343434;fill-opacity:1;stroke:#000000;stroke-width:1;stroke-linecap:round;stroke-linejoin:round;paint-order:stroke fill markers;stop-color:#000000"
         d="m 55.190113,92.76898 c 0,0 4.188248,-7.030272 7.030272,-8.376496 2.842025,-1.346221 13.362504,-2.393283 15.107609,-2.044263 1.745101,0.34902 7.179852,1.994403 7.429153,2.493005 0.249301,0.498602 -1.695244,4.537268 -1.695244,4.537268 -4.86755,0.439073 -25.011825,2.466887 -27.87179,3.390486 z"
         id="path12623"
         sodipodi:nodetypes="cssscc"
         inkscape:label="left-shoulder" /><path
         style="fill:#343434;fill-opacity:1;stroke:#000000;stroke-width:1;stroke-linecap:round;stroke-linejoin:round;paint-order:stroke fill markers;stop-color:#000000"
         d="m 151.86298,92.838516 c 0,0 -4.08853,-6.980412 -6.93056,-8.326636 -2.84202,-1.346221 -13.46222,-2.443143 -15.20732,-2.094123 -1.74511,0.34902 -7.17986,1.994403 -7.42916,2.493005 -0.2493,0.498602 1.69525,4.537268 1.69525,4.537268 4.86755,0.439073 25.01182,2.466887 27.87179,3.390486 z"
         id="path12623-3"
         sodipodi:nodetypes="cssscc"
         inkscape:label="right-shoulder" /><path
         style="fill:#343434;fill-opacity:1;stroke:#000000;stroke-width:1;stroke-linecap:round;stroke-linejoin:round;paint-order:stroke fill markers;stop-color:#000000"
         d="m 133.66712,98.507904 c 0,0 3.88909,12.764176 5.48462,14.010686 1.59552,1.2465 8.22513,2.51609 10.27117,2.39328 2.04958,-0.12302 2.90612,0.32048 3.88909,-2.64258 0.96317,-2.9034 0.84762,-11.3681 0.44874,-12.564741 -0.39888,-1.196645 -2.44314,-5.484612 -2.44314,-5.484612 -5.55623,0.05716 -11.03214,0.134009 -16.55355,0.648179 z"
         id="path10492-5"
         inkscape:label="right-trigger"
         sodipodi:nodetypes="cssssccc" /><path
         style="fill:#343434;fill-opacity:1;stroke:#000000;stroke-width:1;stroke-linecap:round;stroke-linejoin:round;paint-order:stroke fill markers;stop-color:#000000"
         d="m 72.818465,98.507902 c 0,0 -3.889087,12.764178 -5.484611,14.010688 -1.595523,1.2465 -8.225133,2.51609 -10.271178,2.39328 -2.049577,-0.12302 -2.906121,0.32048 -3.889087,-2.64258 -0.963174,-2.9034 -0.847622,-11.3681 -0.448741,-12.564743 0.39888,-1.196645 2.443144,-5.484612 2.443144,-5.484612 7.956889,0.0407 9.271429,0.176433 16.55355,0.648179 z"
         id="path10492-5-6"
         inkscape:label="left-trigger"
         sodipodi:nodetypes="cssssccc" /><text
         xml:space="preserve"
         style="font-weight:900;font-size:5.64444px;font-family:Nunito;-inkscape-font-specification:'Nunito Heavy';text-align:center;text-anchor:middle;opacity:1;fill:#e73c00;fill-opacity:1;stroke:none;stroke-width:1;stroke-linecap:round;stroke-linejoin:round;stroke-opacity:1;paint-order:stroke fill markers;stop-color:#000000"
         x="136.89348"
         y="65.565689"
         id="text6576"><tspan
           sodipodi:role="line"
           id="tspan6574"
           style="fill:#e73c00;fill-opacity:1;stroke:none;stroke-width:1"
           x="136.89348"
           y="65.565689">Left Shoulder</tspan></text><text
         xml:space="preserve"
         style="font-weight:900;font-size:5.64444px;font-family:Nunito;-inkscape-font-specification:'Nunito Heavy';text-align:center;text-anchor:middle;opacity:1;fill:#e73c00;fill-opacity:1;stroke:none;stroke-width:1;stroke-linecap:round;stroke-linejoin:round;stroke-opacity:1;paint-order:stroke fill markers;stop-color:#000000"
         x="69.826584"
         y="65.133888"
         id="text7408"><tspan
           sodipodi:role="line"
           id="tspan7406"
           style="fill:#e73c00;fill-opacity:1;stroke-width:1"
           x="69.826584"
           y="65.133888">Right Shoulder</tspan></text><text
         xml:space="preserve"
         style="font-weight:900;font-size:5.64444px;font-family:Nunito;-inkscape-font-specification:'Nunito Heavy';text-align:center;text-anchor:middle;opacity:1;fill:#e73c00;fill-opacity:1;stroke:none;stroke-width:1;stroke-linecap:round;stroke-linejoin:round;stroke-opacity:1;paint-order:stroke fill markers;stop-color:#000000"
         x="194.50272"
         y="106.12832"
         id="text7412"><tspan
           sodipodi:role="line"
           id="tspan7410"
           style="fill:#e73c00;fill-opacity:1;stroke-width:1"
           x="194.50272"
           y="106.12832">Left Trigger</tspan></text><path
         style="fill:none;fill-opacity:1;stroke:#e73c00;stroke-width:1;stroke-linecap:round;stroke-linejoin:round;stroke-dasharray:none;stroke-opacity:1;paint-order:stroke fill markers;stop-color:#000000"
         d="M 69.993096,86.646907 V 66.608046"
         id="path19786" /><text
         xml:space="preserve"
         style="font-weight:900;font-size:5.64444px;font-family:Nunito;-inkscape-font-specification:'Nunito Heavy';text-align:center;text-anchor:middle;opacity:1;fill:#e73c00;fill-opacity:1;stroke:none;stroke-width:1;stroke-linecap:round;stroke-linejoin:round;stroke-opacity:1;paint-order:stroke fill markers;stop-color:#000000"
         x="10.041175"
         y="106.12832"
         id="text7416"><tspan
           sodipodi:role="line"
           id="tspan7414"
           style="fill:#e73c00;fill-opacity:1;stroke-width:1"
           x="10.041175"
           y="106.12832">Right Trigger</tspan></text><path
         style="fill:#010101;fill-opacity:1;stroke:#e73c00;stroke-width:0.999998;stroke-linecap:round;stroke-linejoin:round;stroke-dasharray:none;stroke-opacity:1;paint-order:stroke fill markers;stop-color:#000000"
         d="M 30.464868,104.57045 H 61.822611"
         id="path16636"
         sodipodi:nodetypes="cc" /><path
         style="fill:#010101;fill-opacity:1;stroke:#e73c00;stroke-width:0.999998;stroke-linecap:round;stroke-linejoin:round;stroke-dasharray:none;stroke-opacity:1;paint-order:stroke fill markers;stop-color:#000000"
         d="M 143.70846,104.57045 H 175.0662"
         id="path16636-3"
         sodipodi:nodetypes="cc" /><path
         style="fill:none;fill-opacity:1;stroke:#e73c00;stroke-width:1;stroke-linecap:round;stroke-linejoin:round;stroke-dasharray:none;stroke-opacity:1;paint-order:stroke fill markers;stop-color:#000000"
         d="M 137.06,86.646907 V 66.608046"
         id="path19786-8" /></g></g></svg>
