<svg width="1286.6" height="354.09" version="1.1" viewBox="0 0 1286.6 354.09" xml:space="preserve" xmlns="http://www.w3.org/2000/svg"><g transform="translate(180.11 88.806)"><g stroke-linecap="round"><rect x="-179.62" y="-88.316" width="1285.6" height="353.11" ry=".55864" fill="#1d1f20" stroke="#fff" stroke-width=".9788" style="paint-order:normal"/><text transform="scale(.26458)" fill="#e73c00" font-family="Nunito" font-size="42.667px" font-weight="900" stroke="#ffffff" stroke-width="3.2239" style="shape-inside:url(#rect2);white-space:pre" xml:space="preserve"/><text fill="none" font-family="Nunito" font-size="16px" font-weight="bold" stop-color="#000000" stroke="#ffffff" stroke-linejoin="round" stroke-width="1.9994" style="paint-order:stroke fill markers;shape-inside:url(#rect29998);white-space:pre" xml:space="preserve"/></g><rect x="-138.08" y="-59.503" width="573.42" height="295.49" ry="4.7371" fill="#2f3435" stroke="#fff" stroke-linecap="round" stroke-linejoin="round" stroke-width="4.0704" style="paint-order:stroke fill markers"/><g transform="translate(113.33 -5.7379)" stroke-linecap="round"><rect x="132" y="160.87" width="173.06" height="56.799" ry="7.7344" fill="#e73c00" stroke="#fff" stroke-width="3"/><text x="160.98308" y="194.07855" fill="#ffffff" font-family="Nunito" font-size="17.277px" font-weight="900" stroke-width="2" xml:space="preserve"><tspan x="160.98308" y="194.07855" stroke-width="2">Audio System</tspan></text></g><g transform="translate(50.98)" stroke-linecap="round"><rect x="-179.16" y="8.1535" width="546.12" height="56.799" ry="7.7344" fill="#e73c00" stroke="#fff" stroke-width="3"/><text x="46.310097" y="41.357391" fill="#ffffff" font-family="Nunito" font-size="17.277px" font-weight="900" stroke-width="2" xml:space="preserve"><tspan x="46.310097" y="41.357391" stroke-width="2">Game Code</tspan></text></g><g transform="translate(-30.378 7.3264)" stroke-linecap="round"><rect x="-97.801" y="147.81" width="173.06" height="56.799" ry="7.7344" fill="#e73c00" stroke="#fff" stroke-width="3"/><text x="-66.612099" y="181.01425" fill="#ffffff" font-family="Nunito" font-size="17.277px" font-weight="900" stroke-width="2" xml:space="preserve"><tspan x="-66.612099" y="181.01425" stroke-width="2">Input System</tspan></text></g><g transform="translate(122.72 -83.86)" stroke-linecap="round"><rect x="-64.14" y="239" width="173.06" height="56.799" ry="7.7344" fill="#e73c00" stroke="#fff" stroke-width="3"/><text x="-41.589882" y="272.18265" fill="#ffffff" font-family="Nunito" font-size="17.277px" font-weight="900" stroke-width="2" xml:space="preserve"><tspan x="-41.589882" y="272.18265" stroke-width="2">Physics System</tspan></text></g><g transform="translate(263.15 -8.9706)"><path transform="matrix(-.45672 0 0 -.44545 -236.46 244.5)" d="m174.71 239.14h-26.568-26.568l26.568-46.017 13.284 23.008z" fill="#f6ffff"/><path d="m-304.05 82.916v68.993" fill="none" stroke="#fff" stroke-linecap="round" stroke-width="3" style="paint-order:normal"/></g><g transform="translate(449.16 -8.9706)"><path transform="matrix(-.45672 0 0 -.44545 -236.46 244.5)" d="m174.71 239.14h-26.568-26.568l26.568-46.017 13.284 23.008z" fill="#f6ffff"/><path d="m-304.05 82.916v68.993" fill="none" stroke="#fff" stroke-linecap="round" stroke-width="3" style="paint-order:normal"/></g><g transform="translate(636.49 -8.9706)"><path transform="matrix(-.45672 0 0 -.44545 -236.46 244.5)" d="m174.71 239.14h-26.568-26.568l26.568-46.017 13.284 23.008z" fill="#f6ffff"/><path d="m-304.05 82.916v68.993" fill="none" stroke="#fff" stroke-linecap="round" stroke-width="3" style="paint-order:normal"/></g><text x="90.383255" y="-18.643911" fill="#ffffff" font-family="Nunito" font-size="31.571px" font-weight="900" stroke-linecap="round" stroke-width="3.6546" xml:space="preserve"><tspan x="90.383255" y="-18.643911" stroke-width="3.6546">Game 1</tspan></text><g transform="translate(629.25)"><rect x="-138.08" y="-59.503" width="573.42" height="295.49" ry="4.7371" fill="#2f3435" stroke="#fff" stroke-linecap="round" stroke-linejoin="round" stroke-width="4.0704" style="paint-order:stroke fill markers"/><g transform="translate(113.33 -5.7379)" stroke-linecap="round"><rect x="132" y="160.87" width="173.06" height="56.799" ry="7.7344" fill="#e73c00" stroke="#fff" stroke-width="3"/><text x="160.98308" y="194.07855" fill="#ffffff" font-family="Nunito" font-size="17.277px" font-weight="900" stroke-width="2" xml:space="preserve"><tspan x="160.98308" y="194.07855" stroke-width="2">Audio System</tspan></text></g><g transform="translate(50.98)" stroke-linecap="round"><rect x="-179.16" y="8.1535" width="546.12" height="56.799" ry="7.7344" fill="#e73c00" stroke="#fff" stroke-width="3"/><text x="46.310097" y="41.357391" fill="#ffffff" font-family="Nunito" font-size="17.277px" font-weight="900" stroke-width="2" xml:space="preserve"><tspan x="46.310097" y="41.357391" stroke-width="2">Game Code</tspan></text></g><g transform="translate(-30.378 7.3264)" stroke-linecap="round"><rect x="-97.801" y="147.81" width="173.06" height="56.799" ry="7.7344" fill="#e73c00" stroke="#fff" stroke-width="3"/><text x="-66.612099" y="181.01425" fill="#ffffff" font-family="Nunito" font-size="17.277px" font-weight="900" stroke-width="2" xml:space="preserve"><tspan x="-66.612099" y="181.01425" stroke-width="2">Input System</tspan></text></g><g transform="translate(122.72 -83.86)" stroke-linecap="round"><rect x="-64.14" y="239" width="173.06" height="56.799" ry="7.7344" fill="#e73c00" stroke="#fff" stroke-width="3"/><text x="-41.589882" y="272.18265" fill="#ffffff" font-family="Nunito" font-size="17.277px" font-weight="900" stroke-width="2" xml:space="preserve"><tspan x="-41.589882" y="272.18265" stroke-width="2">Physics System</tspan></text></g><g transform="translate(263.15 -8.9706)"><path transform="matrix(-.45672 0 0 -.44545 -236.46 244.5)" d="m174.71 239.14h-26.568-26.568l26.568-46.017 13.284 23.008z" fill="#f6ffff"/><path d="m-304.05 82.916v68.993" fill="none" stroke="#fff" stroke-linecap="round" stroke-width="3" style="paint-order:normal"/></g><g transform="translate(449.16 -8.9706)"><path transform="matrix(-.45672 0 0 -.44545 -236.46 244.5)" d="m174.71 239.14h-26.568-26.568l26.568-46.017 13.284 23.008z" fill="#f6ffff"/><path d="m-304.05 82.916v68.993" fill="none" stroke="#fff" stroke-linecap="round" stroke-width="3" style="paint-order:normal"/></g><g transform="translate(636.49 -8.9706)"><path transform="matrix(-.45672 0 0 -.44545 -236.46 244.5)" d="m174.71 239.14h-26.568-26.568l26.568-46.017 13.284 23.008z" fill="#f6ffff"/><path d="m-304.05 82.916v68.993" fill="none" stroke="#fff" stroke-linecap="round" stroke-width="3" style="paint-order:normal"/></g><text x="90.383255" y="-18.643911" fill="#ffffff" font-family="Nunito" font-size="31.571px" font-weight="900" stroke-linecap="round" stroke-width="3.6546" xml:space="preserve"><tspan x="90.383255" y="-18.643911" stroke-width="3.6546">Game 2</tspan></text></g></g></svg>
