<svg width="1286.6" height="500.89" version="1.1" viewBox="0 0 1286.6 500.89" xml:space="preserve" xmlns="http://www.w3.org/2000/svg"><g transform="translate(180.11 29.166)"><rect x="-179.62" y="-28.676" width="1285.6" height="499.91" ry=".79089" fill="#1d1f20" stroke="#fff" stroke-linecap="round" stroke-width=".9788" style="paint-order:normal"/><g transform="translate(883.1 -252)"><path transform="matrix(-.45672 0 0 -.44545 -282.32 610.77)" d="m174.71 239.14h-26.568-26.568l26.568-46.017 13.284 23.008z" fill="#f6ffff"/><path d="m-349.91 449.18v68.993" fill="none" stroke="#fff" stroke-linecap="round" stroke-width="3" style="paint-order:normal"/></g><text transform="scale(.26458)" fill="#e73c00" font-family="Nunito" font-size="42.667px" font-weight="900" stroke="#ffffff" stroke-linecap="round" stroke-width="3.2239" style="shape-inside:url(#rect2);white-space:pre" xml:space="preserve"/><text fill="none" font-family="Nunito" font-size="16px" font-weight="bold" stop-color="#000000" stroke="#ffffff" stroke-linecap="round" stroke-linejoin="round" stroke-width="1.9994" style="paint-order:stroke fill markers;shape-inside:url(#rect29998);white-space:pre" xml:space="preserve"/><g transform="translate(0 339.78)"><rect x="-138.08" y="-59.503" width="573.42" height="153.06" ry="2.4538" fill="#2f3435" stroke="#fff" stroke-linecap="round" stroke-linejoin="round" stroke-width="4.0704" style="paint-order:stroke fill markers"/><g transform="translate(50.98)" stroke-linecap="round"><rect x="-179.16" y="8.1535" width="546.12" height="56.799" ry="7.7344" fill="#e73c00" stroke="#fff" stroke-width="3"/><text x="46.310097" y="41.357391" fill="#ffffff" font-family="Nunito" font-size="17.277px" font-weight="900" stroke-width="2" xml:space="preserve"><tspan x="46.310097" y="41.357391" stroke-width="2">Game Code</tspan></text></g><text x="90.383255" y="-18.643911" fill="#ffffff" font-family="Nunito" font-size="31.571px" font-weight="900" stroke-linecap="round" stroke-width="3.6546" xml:space="preserve"><tspan x="90.383255" y="-18.643911" stroke-width="3.6546">Game 1</tspan></text></g><g transform="translate(629.25 339.78)"><rect x="-138.08" y="-59.503" width="573.42" height="153.06" ry="2.4538" fill="#2f3435" stroke="#fff" stroke-linecap="round" stroke-linejoin="round" stroke-width="4.0704" style="paint-order:stroke fill markers"/><g transform="translate(50.98)" stroke-linecap="round"><rect x="-179.16" y="8.1535" width="546.12" height="56.799" ry="7.7344" fill="#e73c00" stroke="#fff" stroke-width="3"/><text x="46.310097" y="41.357391" fill="#ffffff" font-family="Nunito" font-size="17.277px" font-weight="900" stroke-width="2" xml:space="preserve"><tspan x="46.310097" y="41.357391" stroke-width="2">Game Code</tspan></text></g><text x="90.383255" y="-18.643911" fill="#ffffff" font-family="Nunito" font-size="31.571px" font-weight="900" stroke-linecap="round" stroke-width="3.6546" xml:space="preserve"><tspan x="90.383255" y="-18.643911" stroke-width="3.6546">Game 2</tspan></text></g><g transform="translate(314.55 63.92)" stroke-linecap="round"><rect x="-138.08" y="-59.503" width="573.42" height="179.87" ry="2.8836" fill="#2f3435" stroke="#fff" stroke-linejoin="round" stroke-width="4.0704" style="paint-order:stroke fill markers"/><g transform="translate(0,-130)"><g transform="translate(113.33 -5.7379)"><rect x="132" y="160.87" width="173.06" height="56.799" ry="7.7344" fill="#e73c00" stroke="#fff" stroke-width="3"/><text x="160.98308" y="194.07855" fill="#ffffff" font-family="Nunito" font-size="17.277px" font-weight="900" stroke-width="2" xml:space="preserve"><tspan x="160.98308" y="194.07855" stroke-width="2">Audio System</tspan></text></g><g transform="translate(-30.378 7.3264)"><rect x="-97.801" y="147.81" width="173.06" height="56.799" ry="7.7344" fill="#e73c00" stroke="#fff" stroke-width="3"/><text x="-66.612099" y="181.01425" fill="#ffffff" font-family="Nunito" font-size="17.277px" font-weight="900" stroke-width="2" xml:space="preserve"><tspan x="-66.612099" y="181.01425" stroke-width="2">Input System</tspan></text></g><g transform="translate(122.72 -83.86)"><rect x="-64.14" y="239" width="173.06" height="56.799" ry="7.7344" fill="#e73c00" stroke="#fff" stroke-width="3"/><text x="-41.589882" y="272.18265" fill="#ffffff" font-family="Nunito" font-size="17.277px" font-weight="900" stroke-width="2" xml:space="preserve"><tspan x="-41.589882" y="272.18265" stroke-width="2">Physics System</tspan></text></g></g><text x="47.589531" y="-18.643911" fill="#ffffff" font-family="Nunito" font-size="31.571px" font-weight="900" stroke-width="3.6546" xml:space="preserve"><tspan x="47.589531" y="-18.643911" stroke-width="3.6546">Class Library</tspan></text></g><g transform="translate(726.29 -252)"><path transform="matrix(-.45672 0 0 -.44545 -282.32 610.77)" d="m174.71 239.14h-26.568-26.568l26.568-46.017 13.284 23.008z" fill="#f6ffff"/><path d="m-349.91 449.18v68.993" fill="none" stroke="#fff" stroke-linecap="round" stroke-width="3" style="paint-order:normal"/></g></g></svg>
