<?xml version="1.0" encoding="UTF-8" standalone="no"?>
<!-- Created with Inkscape (http://www.inkscape.org/) -->

<svg
   width="240.85201mm"
   height="124.05582mm"
   viewBox="0 0 240.85201 124.05582"
   version="1.1"
   id="svg3800"
   xml:space="preserve"
   inkscape:version="1.2.2 (732a01da63, 2022-12-09)"
   sodipodi:docname="ps-controller-back.svg"
   inkscape:export-filename="xbox-controller.png"
   inkscape:export-xdpi="143.66342"
   inkscape:export-ydpi="143.66342"
   xmlns:inkscape="http://www.inkscape.org/namespaces/inkscape"
   xmlns:sodipodi="http://sodipodi.sourceforge.net/DTD/sodipodi-0.dtd"
   xmlns="http://www.w3.org/2000/svg"
   xmlns:svg="http://www.w3.org/2000/svg"><sodipodi:namedview
     id="namedview3802"
     pagecolor="#ffffff"
     bordercolor="#000000"
     borderopacity="0.25"
     inkscape:showpageshadow="2"
     inkscape:pageopacity="0.0"
     inkscape:pagecheckerboard="0"
     inkscape:deskcolor="#d1d1d1"
     inkscape:document-units="mm"
     showgrid="false"
     showguides="true"
     inkscape:zoom="2.6532575"
     inkscape:cx="364.45765"
     inkscape:cy="235.93639"
     inkscape:window-width="3840"
     inkscape:window-height="2054"
     inkscape:window-x="-11"
     inkscape:window-y="-11"
     inkscape:window-maximized="1"
     inkscape:current-layer="svg3800"><sodipodi:guide
       position="130.28559,52.672513"
       orientation="0,-1"
       id="guide6592"
       inkscape:locked="false" /><sodipodi:guide
       position="96.343984,75.704413"
       orientation="1,0"
       id="guide6594"
       inkscape:locked="false" /><sodipodi:guide
       position="89.06441,65.782262"
       orientation="1,0"
       id="guide6596"
       inkscape:locked="false" /><sodipodi:guide
       position="84.227981,44.043312"
       orientation="0,-1"
       id="guide6598"
       inkscape:locked="false" /><sodipodi:guide
       position="179.17308,37.184024"
       orientation="0,-1"
       id="guide6602"
       inkscape:locked="false" /><sodipodi:guide
       position="82.083997,53.566532"
       orientation="1,0"
       id="guide6604"
       inkscape:locked="false" /><sodipodi:guide
       position="102.76473,51.153342"
       orientation="1,0"
       id="guide6606"
       inkscape:locked="false" /><sodipodi:guide
       position="128.89744,29.85069"
       orientation="0,-1"
       id="guide6618"
       inkscape:locked="false" /><sodipodi:guide
       position="128.82693,6.6519711"
       orientation="0,-1"
       id="guide21441"
       inkscape:locked="false" /><sodipodi:guide
       position="126.78206,12.010946"
       orientation="0,-1"
       id="guide21443"
       inkscape:locked="false" /><sodipodi:guide
       position="164.57693,74.062229"
       orientation="0,-1"
       id="guide21445"
       inkscape:locked="false" /><sodipodi:guide
       position="84.051285,60.523768"
       orientation="0,-1"
       id="guide21447"
       inkscape:locked="false" /></sodipodi:namedview><defs
     id="defs3797"><rect
       x="615.84674"
       y="-78.771095"
       width="55.403595"
       height="52.765327"
       id="rect16483" /><rect
       x="538.58325"
       y="75.002144"
       width="326.39124"
       height="44.850529"
       id="rect16477" /><rect
       x="-219.7299"
       y="6.030323"
       width="335.81363"
       height="50.12706"
       id="rect16369" /></defs><g
     inkscape:groupmode="layer"
     id="layer14"
     inkscape:label="ps-controller"
     style="display:inline;opacity:1"><path
       style="opacity:1;fill:#ffffff;fill-opacity:1;stroke:#343434;stroke-width:1;stroke-linecap:round;stroke-linejoin:round;stroke-opacity:1;paint-order:stroke fill markers;stop-color:#000000"
       d="m 56.779155,121.81175 c -3.52847,-0.31368 -8.34664,-4.07766 -10.553813,-9.88209 -0.309018,-6.82748 -0.751491,-15.730314 -0.121077,-24.901238 0.76942,-11.193113 4.868258,-27.086865 7.707766,-36.991679 2.54757,-5.509722 3.173887,-9.410816 8.159663,-11.826804 16.378995,-2.59396 35.341073,-5.541488 51.967326,-5.750537 18.65531,0.839195 32.24868,2.403729 50.70979,5.260157 6.13107,0.406015 6.22622,8.001206 8.32949,12.628422 4.1546,11.872732 6.98627,23.603314 8.96167,36.697004 0.88356,8.174072 1.3353,16.873655 -0.7888,25.060245 -2.36607,4.54225 -5.95211,9.03574 -12.26708,9.98456 -4.20556,-3.2e-4 -6.06035,-0.29213 -8.03495,-4.6483 -3.46897,-7.80904 -6.30232,-16.01258 -10.77026,-23.305636 -3.92288,-5.364559 -10.72748,-3.791577 -16.45851,-3.76132 -16.24938,0.383397 -28.71222,0.170517 -44.880287,0.254001 -4.393154,0.224498 -6.290858,-1.284972 -10.495953,4.33461 -2.368918,5.573275 -7.193447,16.910655 -10.469482,22.445525 -2.439314,3.87917 -7.616236,4.30686 -10.995493,4.40308 z"
       id="path15934"
       inkscape:label="outline"
       sodipodi:nodetypes="cccccccccccccccccc" /><g
       inkscape:groupmode="layer"
       id="layer4-8"
       inkscape:label="left-stick"
       style="display:inline"
       transform="translate(24.894468,-16.267272)" /><g
       inkscape:groupmode="layer"
       id="layer5-6"
       inkscape:label="right-stick 1"
       style="display:inline"
       transform="translate(15.02217,-35.014667)" /><path
       id="path6589-0"
       style="display:none;fill:#323232;stroke:#000000;stroke-linecap:round;stroke-linejoin:round;paint-order:stroke fill markers;stop-color:#000000"
       inkscape:transform-center-x="-0.032163564"
       inkscape:transform-center-y="0.051992455"
       d="m 67.425127,67.647262 v -6.38215 l -6.979017,7e-6 -0.0014,-7.110037 h 6.980413 v -6.424089 h 7.279574 l -0.113606,6.424089 h 6.534358 l -1e-5,7.11003 h -6.420742 l 4e-6,6.38215 z"
       sodipodi:nodetypes="ccccccccccccc"
       inkscape:label="dpad"
       sodipodi:insensitive="true" /><path
       style="opacity:1;fill:#323232;fill-opacity:1;stroke:#000000;stroke-width:1;stroke-linecap:round;stroke-linejoin:round;stroke-opacity:1;paint-order:stroke fill markers;stop-color:#000000"
       d="m 61.645834,37.953526 0.246792,-2.344552 c 0,0 4.935898,-2.979166 7.016028,-3.419872 2.080128,-0.440706 6.487178,-0.775642 7.703524,-0.616987 1.216347,0.158655 3.13782,0.405447 3.190705,0.669872 0.05289,0.264422 0.387821,2.556089 0.387821,2.556089 z"
       id="path21353"
       inkscape:label="left-shoulder" /><path
       style="display:inline;opacity:1;fill:none;fill-opacity:1;stroke:#e73c00;stroke-width:1;stroke-linecap:round;stroke-linejoin:round;stroke-dasharray:none;stroke-opacity:1;paint-order:stroke fill markers;stop-color:#000000"
       d="m 54.538207,29.283357 v 4.88629 H 71.98924"
       id="path19794"
       inkscape:label="left-shoulder-line" /><path
       style="fill:#323232;fill-opacity:1;stroke:#000000;stroke-width:1;stroke-linecap:round;stroke-linejoin:round;stroke-opacity:1;paint-order:stroke fill markers;stop-color:#000000"
       d="m 165.73495,37.953526 -0.24679,-2.344552 c 0,0 -4.9359,-2.979166 -7.01603,-3.419872 -2.08013,-0.440706 -6.48718,-0.775642 -7.70353,-0.616987 -1.21634,0.158655 -3.13782,0.405447 -3.1907,0.669872 -0.0529,0.264422 -0.38782,2.556089 -0.38782,2.556089 z"
       id="path21353-4"
       inkscape:label="right-shoulder" /><text
       xml:space="preserve"
       style="font-style:normal;font-variant:normal;font-weight:900;font-stretch:normal;font-size:5.64444px;font-family:Nunito;-inkscape-font-specification:'Nunito Heavy';text-align:center;text-anchor:middle;display:inline;opacity:1;fill:#e73c00;fill-opacity:1;stroke:none;stroke-width:1;stroke-linecap:round;stroke-linejoin:round;paint-order:stroke fill markers;stop-color:#000000"
       x="56.140141"
       y="27.827801"
       id="text16569"
       inkscape:label="text-right-shoulder"><tspan
         sodipodi:role="line"
         id="tspan16567"
         style="font-size:5.64444px;fill:#e73c00;fill-opacity:1;stroke-width:1"
         x="56.140141"
         y="27.827801">Right Shoulder</tspan></text><path
       style="display:inline;opacity:1;fill:none;fill-opacity:1;stroke:#e73c00;stroke-width:1;stroke-linecap:round;stroke-linejoin:round;stroke-dasharray:none;stroke-opacity:1;paint-order:stroke fill markers;stop-color:#000000"
       d="m 175.69823,29.732099 v 4.188247 h -20.14348"
       id="path19796"
       inkscape:label="right-shoulder-line" /><text
       xml:space="preserve"
       style="font-style:normal;font-variant:normal;font-weight:900;font-stretch:normal;font-size:5.64444px;font-family:Nunito;-inkscape-font-specification:'Nunito Heavy';text-align:center;text-anchor:middle;display:inline;opacity:1;fill:#e73c00;fill-opacity:1;stroke:none;stroke-width:1;stroke-linecap:round;stroke-linejoin:round;paint-order:stroke fill markers;stop-color:#000000"
       x="179.00146"
       y="28.2596"
       id="text16565"
       inkscape:label="text-left-shoulder"><tspan
         sodipodi:role="line"
         id="tspan16563"
         style="font-size:5.64444px;fill:#e73c00;fill-opacity:1;stroke-width:1"
         x="179.00146"
         y="28.2596">Left Shoulder</tspan></text><path
       style="fill:#343434;fill-opacity:1;stroke:#000000;stroke-width:1;stroke-linecap:round;stroke-linejoin:round;paint-order:stroke fill markers;stop-color:#000000"
       d="m 78.402543,44.196421 c 0,0 -3.889087,12.764178 -5.484611,14.010688 -1.595523,1.2465 -8.225133,2.51609 -10.271178,2.39328 -2.049577,-0.12302 -2.906121,0.32048 -3.889087,-2.64258 -0.963174,-2.9034 -0.847622,-11.3681 -0.448741,-12.564743 0.39888,-1.196645 2.443144,-5.484612 2.443144,-5.484612 7.956889,0.0407 9.271429,0.176433 16.55355,0.648179 z"
       id="path10492-5-6"
       inkscape:label="left-trigger"
       sodipodi:nodetypes="cssssccc" /><path
       style="fill:#343434;fill-opacity:1;stroke:#000000;stroke-width:1;stroke-linecap:round;stroke-linejoin:round;paint-order:stroke fill markers;stop-color:#000000"
       d="m 147.06479,44.196422 c 0,0 3.88909,12.764176 5.48462,14.010686 1.59552,1.2465 8.22513,2.51609 10.27117,2.39328 2.04958,-0.12302 2.90612,0.32048 3.88909,-2.64258 0.96317,-2.9034 0.84762,-11.3681 0.44874,-12.564741 -0.39888,-1.196645 -2.44314,-5.484612 -2.44314,-5.484612 -5.55623,0.05716 -11.03214,0.134009 -16.55355,0.648179 z"
       id="path10492-5"
       inkscape:label="right-trigger"
       sodipodi:nodetypes="cssssccc" /><text
       xml:space="preserve"
       style="font-weight:900;font-size:5.64444px;font-family:Nunito;-inkscape-font-specification:'Nunito Heavy';text-align:center;text-anchor:middle;fill:#e73c00;fill-opacity:1;stroke:none;stroke-width:1;stroke-linecap:round;stroke-linejoin:round;stroke-opacity:1;paint-order:stroke fill markers;stop-color:#000000"
       x="199.77803"
       y="51.816837"
       id="text7412"><tspan
         sodipodi:role="line"
         id="tspan7410"
         style="fill:#e73c00;fill-opacity:1;stroke-width:1"
         x="199.77803"
         y="51.816837">Left Trigger</tspan></text><text
       xml:space="preserve"
       style="font-weight:900;font-size:5.64444px;font-family:Nunito;-inkscape-font-specification:'Nunito Heavy';text-align:center;text-anchor:middle;fill:#e73c00;fill-opacity:1;stroke:none;stroke-width:1;stroke-linecap:round;stroke-linejoin:round;stroke-opacity:1;paint-order:stroke fill markers;stop-color:#000000"
       x="25.288511"
       y="51.816837"
       id="text7416"><tspan
         sodipodi:role="line"
         id="tspan7414"
         style="fill:#e73c00;fill-opacity:1;stroke-width:1"
         x="25.288511"
         y="51.816837">Right Trigger</tspan></text><path
       style="fill:#010101;fill-opacity:1;stroke:#e73c00;stroke-width:0.999999;stroke-linecap:round;stroke-linejoin:round;stroke-dasharray:none;stroke-opacity:1;paint-order:stroke fill markers;stop-color:#000000"
       d="M 45.553492,50.258974 H 66.957481"
       id="path16636"
       sodipodi:nodetypes="cc" /><path
       style="fill:#010101;fill-opacity:1;stroke:#e73c00;stroke-width:1;stroke-linecap:round;stroke-linejoin:round;stroke-dasharray:none;stroke-opacity:1;paint-order:stroke fill markers;stop-color:#000000"
       d="m 158.80787,50.258974 h 22.08046"
       id="path16636-3"
       sodipodi:nodetypes="cc" /></g></svg>
