<svg width="2097.9" height="2169.2" version="1.1" viewBox="0 0 2097.9 2169.2" xml:space="preserve" xmlns="http://www.w3.org/2000/svg"><g transform="translate(63.163 191.19)"><rect x="-61.634" y="-189.67" width="2094.9" height="2166.2" rx="3.3497" ry="2.0616" fill="#1d1f20" stroke="#fff" stroke-linecap="round" stroke-width="3.0581" style="paint-order:normal"/><g font-family="Nunito"><g stroke-linecap="round"><text transform="translate(555.92 -125.42)" fill="#e73c00" font-size="53.333px" font-weight="900" stop-color="#000000" stroke-linejoin="round" stroke-width="10" style="paint-order:stroke fill markers;shape-inside:url(#rect77030-8);white-space:pre" xml:space="preserve"><tspan x="-77.78125" y="6.5997747">MonoGame Content Pipeline Workflow</tspan></text><text transform="matrix(.26458 0 0 .26458 0 3.8018e-5)" fill="#e73c00" font-size="42.667px" font-weight="900" stroke="#ffffff" stroke-width="3.2239" style="shape-inside:url(#rect2);white-space:pre" xml:space="preserve"/><text transform="translate(0 3.8018e-5)" fill="none" font-size="16px" font-weight="bold" stop-color="#000000" stroke="#ffffff" stroke-linejoin="round" stroke-width="1.9994" style="paint-order:stroke fill markers;shape-inside:url(#rect29998);white-space:pre" xml:space="preserve"/></g><text transform="translate(-111.25 12.452)" fill="none" font-size="37.333px" font-weight="bold" stop-color="#000000" text-align="center" style="paint-order:stroke fill markers;shape-inside:url(#rect17303);white-space:pre" xml:space="preserve"/></g><g transform="translate(64.696 -56)"><g stroke-linecap="round" stroke-linejoin="round"><rect x="-88.413" y="1747.3" width="2019" height="258.22" rx="3.9894" ry="3.9894" fill="#2f3435" stop-color="#000000" stroke="#fff" stroke-width="3" style="paint-order:stroke fill markers"/><text transform="translate(606.36 1593.8)" fill="#ffffff" font-family="Nunito" font-size="64px" font-weight="900" stroke-width="3" style="paint-order:stroke fill markers;shape-inside:url(#rect70-0-5-2);white-space:pre" xml:space="preserve"><tspan x="395.98047" y="219.48578">Runtime Phase</tspan></text><rect x="-88.413" y="997.74" width="2019" height="706.53" rx="3.9894" ry="3.9894" fill="#2f3435" stop-color="#000000" stroke="#fff" stroke-width="3" style="paint-order:stroke fill markers"/><text transform="translate(606.36 844.3)" fill="#ffffff" font-family="Nunito" font-size="64px" font-weight="900" stroke-width="3" style="paint-order:stroke fill markers;shape-inside:url(#rect70-0-5);white-space:pre" xml:space="preserve"><tspan x="395.98047" y="219.48578">Build Phase</tspan></text></g><g fill="#2f3435" stroke-linecap="round" stroke-linejoin="round"><rect x="-88.413" y="26.178" width="2019" height="927.14" rx="3.9894" ry="3.9894" stop-color="#000000" stroke="#fff" stroke-width="3" style="paint-order:stroke fill markers"/><text transform="translate(-167.34 -156.98)" x="1171.9983" y="316.81091" font-family="Nunito" font-size="33.606px" font-weight="bold" stroke="#ffffff" stroke-width="1.9846" style="inline-size:841.348;paint-order:stroke fill markers;white-space:pre" xml:space="preserve"><tspan x="1171.9983" y="316.81091"><tspan fill="#ffffff" stroke="none">Create the source files you will use in your game </tspan></tspan><tspan x="1171.9983" y="358.81802"><tspan fill="#ffffff" stroke="none">including </tspan><tspan fill="#6495ed" stroke="#b1caf6">images</tspan><tspan fill="#ffffff" stroke="none">, </tspan><tspan fill="#6495ed" stroke="#b1caf6">audio</tspan><tspan fill="#ffffff" stroke="none">, </tspan><tspan fill="#6495ed" stroke="#b1caf6">fonts</tspan><tspan fill="#ffffff" stroke="none">, </tspan><tspan fill="#6495ed" stroke="#b1caf6">effects</tspan><tspan fill="#ffffff" stroke="none">, and </tspan><tspan fill="#6495ed" stroke="#b1caf6">models</tspan><tspan fill="#ffffff" stroke="none">.</tspan></tspan></text><text transform="translate(-166.84 182.36)" x="1171.9983" y="316.81091" font-family="Nunito" font-size="33.606px" font-weight="bold" stroke="#ffffff" stroke-width="1.9846" style="inline-size:869.632;paint-order:stroke fill markers;white-space:pre" xml:space="preserve"><tspan x="1171.9983" y="316.81091"><tspan fill="#ffffff" stroke="none">Use the </tspan><tspan fill="#6495ed" stroke="#b1caf6">MonoGame Content Builder (MGCB) Editor</tspan><tspan stroke="#b1caf6"> </tspan><tspan fill="#ffffff" stroke="none">to </tspan></tspan><tspan x="1171.9983" y="358.81802"><tspan fill="#ffffff" stroke="none">edit your content project by adding and/or removing the </tspan></tspan><tspan x="1171.9983" y="400.82516"><tspan fill="#ffffff" stroke="none">source files to be used in your game.</tspan></tspan></text></g><text transform="translate(606.36 -129.11)" fill="#ffffff" font-family="Nunito" font-size="64px" font-weight="900" stroke-linecap="round" stroke-linejoin="round" stroke-width="3" style="paint-order:stroke fill markers;shape-inside:url(#rect70-0);white-space:pre" xml:space="preserve"><tspan x="395.98047" y="219.48578">Development Phase</tspan></text><g transform="translate(-492.06 438.91)" stroke-linecap="round" stroke-linejoin="round"><rect x="557.35" y="43.455" width="706.84" height="99.775" rx="15.328" ry="15.328" fill="#e73c00" stroke="#fff" stroke-width="11.339" style="paint-order:stroke fill markers"/><text x="804.25323" y="105.64247" fill="#2f3435" font-family="Nunito" font-size="33.606px" font-weight="900" stroke="#ffffff" stroke-width="1.9846" style="paint-order:stroke fill markers" xml:space="preserve"><tspan x="804.25323" y="105.64247" fill="#ffffff" stroke="none" stroke-width="1.9846">MGCB Editor</tspan></text></g><g transform="translate(0 -124.45)" stroke-linecap="round" stroke-linejoin="round"><rect x="65.289" y="1254" width="706.84" height="117.11" rx="15.328" ry="15.328" fill="#e73c00" stroke="#fff" stroke-width="11.339" style="paint-order:stroke fill markers"/><g transform="translate(900.85 86.476)" fill="#2f3435" font-family="Nunito" font-size="33.606px" font-weight="900" stroke="#ffffff" stroke-width="1.9846"><text x="-574.37714" y="1215.4905" style="paint-order:stroke fill markers" xml:space="preserve"><tspan x="-574.37714" y="1215.4905" fill="#ffffff" stroke="none" stroke-width="1.9846">MGCB Tool</tspan></text><text x="-756.35211" y="1260.3281" style="paint-order:stroke fill markers" xml:space="preserve"><tspan x="-756.35211" y="1260.3281" fill="#ffffff" stroke="none" stroke-width="1.9846">MonoGame.Content.Builder.Tasks</tspan></text></g></g><g transform="translate(-380.69 808.49)" stroke-linecap="round"><g transform="translate(-41.012 -347.5)" stroke="#fff"><g stroke-width="10.076"><path d="m813.54 375.99h53.737"/><path d="m813.54 349.12h53.737"/><path d="m813.54 402.86h33.586"/></g><path d="m893.53 391.92v-31.873c0-26.561-10.624-37.185-37.185-37.185h-31.873c-26.561 0-37.185 10.624-37.185 37.185v31.873c0 26.561 10.624 37.185 37.185 37.185h31.873c26.561 0 37.185-10.624 37.185-37.185z" fill="none" stroke-linejoin="round" stroke-width="7.9683"/></g><text x="684.93799" y="116.89447" fill="#2f3435" font-family="Nunito" font-size="33.606px" font-weight="900" stroke="#ffffff" stroke-linejoin="round" stroke-width="1.9846" style="paint-order:stroke fill markers" xml:space="preserve"><tspan x="684.93799" y="116.89447" fill="#ffffff" stroke="none" stroke-width="1.9846">Content.mgcb</tspan></text></g><g transform="translate(177.58 -121.93)"><g transform="translate(0 280)"><g transform="translate(-30.453 13.269)" stroke-linecap="round" stroke-linejoin="round"><text x="69.602509" y="110.25403" fill="#2f3435" font-family="Nunito" font-size="33.606px" font-weight="900" stroke="#ffffff" stroke-width="1.9846" style="paint-order:stroke fill markers" xml:space="preserve"><tspan x="69.602509" y="110.25403" fill="#ffffff" stroke="none" stroke-width="1.9846">Audio</tspan></text><g transform="translate(170.31 -172.53)" stroke="#fff" stroke-width="7.9683"><path d="m0.38465 206.84v-31.873c0-26.561-10.624-37.185-37.185-37.185h-31.873c-26.561 0-37.185 10.624-37.185 37.185v31.873c0 26.561 10.624 37.185 37.185 37.185h31.873c26.561 0 37.185-10.624 37.185-37.185z" fill="none"/><path d="m-65.38 219.06c6.2195 0 11.262-5.0418 11.262-11.261 0-6.22-5.0423-11.262-11.262-11.262-6.2198 0-11.262 5.0418-11.262 11.262 0 6.2195 5.042 11.261 11.262 11.261z" fill="none"/><path d="m-54.118 207.8v-39.363"/><path d="m-46.734 163.12 12.43 4.1433c3.0279 1.0093 5.4715 4.4091 5.4715 7.5964v3.2935c0 4.3031-3.3467 6.6936-7.3839 5.3124l-12.43-4.1436c-3.0279-1.0093-5.4715-4.4091-5.4715-7.5964v-3.2935c0-4.2497 3.2935-6.6933 7.3839-5.3122z" fill="none"/></g></g><g transform="translate(-24 12)"><g transform="translate(-56.569 203.65)"><g transform="translate(70.455 -223.51)" fill="#fff" stroke-width="5.0812"><path d="m-89.641 63.748 21.928-40.201c1.9259-3.5307 6.9958-3.5307 8.9216 0l16.1 29.517 5.5146-9.6502c1.9507-3.4136 6.8723-3.4136 8.823 0l11.569 20.246c1.9354 3.3871-0.51066 7.602-4.412 7.602h-63.984c-3.8569 0-6.3077-4.1285-4.4607-7.5146z"/><path d="m-22.603 15.369c0 5.6125-4.5497 10.162-10.162 10.162-5.6127 0-10.162-4.5499-10.162-10.162 0-5.6125 4.5497-10.162 10.162-10.162 5.6127 0 10.162 4.5499 10.162 10.162z"/></g><path d="m70.388-169.34v-31.873c0-26.561-10.624-37.185-37.185-37.185h-31.873c-26.561 0-37.185 10.624-37.185 37.185v31.873c0 26.561 10.624 37.185 37.185 37.185h31.873c26.561 0 37.185-10.624 37.185-37.185z" fill="none" stroke="#fff" stroke-linecap="round" stroke-linejoin="round" stroke-width="7.9683"/></g><text x="-96.696495" y="108.01085" fill="#2f3435" font-family="Nunito" font-size="33.606px" font-weight="900" stroke="#ffffff" stroke-linecap="round" stroke-linejoin="round" stroke-width="1.9846" style="paint-order:stroke fill markers" xml:space="preserve"><tspan x="-96.696495" y="108.01085" fill="#ffffff" stroke="none" stroke-width="1.9846">Images</tspan></text></g><g transform="translate(-60 13.588)" stroke-linecap="round" stroke-linejoin="round"><g transform="translate(-27.067 -37.6)" fill="none"><path d="m376.69 71.906v-31.873c0-26.561-10.624-37.185-37.185-37.185h-31.873c-26.561 0-37.185 10.624-37.185 37.185v31.873c0 26.561 10.624 37.185 37.185 37.185h31.873c26.561 0 37.185-10.624 37.185-37.185z" stroke="#fff" stroke-width="7.9683"/><text transform="matrix(1.5693 0 0 1.5693 -408.99 -120.66)" font-family="Nunito" font-size="37.333px" font-weight="900" stop-color="#000000" stroke="#ffffff" stroke-width="8.64" text-align="center" style="paint-order:stroke fill markers;shape-inside:url(#rect6463);white-space:pre" xml:space="preserve"><tspan x="442.55212" y="125.67608"><tspan fill="#ffffff" stroke="none">Aa</tspan></tspan></text></g><text x="250.52638" y="109.61552" fill="#2f3435" font-family="Nunito" font-size="33.606px" font-weight="900" stroke="#ffffff" stroke-width="1.9846" style="paint-order:stroke fill markers" xml:space="preserve"><tspan x="250.52638" y="109.61552" fill="#ffffff" stroke="none" stroke-width="1.9846">Fonts</tspan></text></g><g transform="translate(-83.029 14.395)"><g transform="translate(336.73 -15.556)"><g transform="matrix(3.5511 0 0 3.5511 77.829 -22.892)" fill="#fff" data-name="Layer 2"><path d="m18 11a1 1 0 0 1-1 1 5 5 0 0 0-5 5 1 1 0 0 1-2 0 5 5 0 0 0-5-5 1 1 0 0 1 0-2 5 5 0 0 0 5-5 1 1 0 0 1 2 0 5 5 0 0 0 5 5 1 1 0 0 1 1 1z"/><path d="m19 24a1 1 0 0 1-1 1 2 2 0 0 0-2 2 1 1 0 0 1-2 0 2 2 0 0 0-2-2 1 1 0 0 1 0-2 2 2 0 0 0 2-2 1 1 0 0 1 2 0 2 2 0 0 0 2 2 1 1 0 0 1 1 1z"/><path d="m28 17a1 1 0 0 1-1 1 4 4 0 0 0-4 4 1 1 0 0 1-2 0 4 4 0 0 0-4-4 1 1 0 0 1 0-2 4 4 0 0 0 4-4 1 1 0 0 1 2 0 4 4 0 0 0 4 4 1 1 0 0 1 1 1z"/></g><path d="m187.77 49.863v-31.873c0-26.561-10.624-37.185-37.185-37.185h-31.873c-26.561 0-37.185 10.624-37.185 37.185v31.873c0 26.561 10.624 37.185 37.185 37.185h31.873c26.561 0 37.185-10.624 37.185-37.185z" fill="none" stroke="#fff" stroke-linecap="round" stroke-linejoin="round" stroke-width="7.9683"/></g><g transform="translate(511.3 2.9573)"><text x="-96.696495" y="106.74223" fill="#2f3435" font-family="Nunito" font-size="33.606px" font-weight="900" stroke="#ffffff" stroke-linecap="round" stroke-linejoin="round" stroke-width="1.9846" style="paint-order:stroke fill markers" xml:space="preserve"><tspan x="-96.696495" y="106.74223" fill="#ffffff" stroke="none" stroke-width="1.9846">Effects</tspan></text></g></g><g transform="translate(420.98 -253.25)"><g transform="translate(-486.83 263.37)"><g transform="translate(364.09 190.28)"><path d="m245.39-209.62c1.0472-0.58183 2.3206-0.58183 3.3678 0l31.206 17.336c0.0264 0.0145 0.0524 0.0295 0.0783 0.0447 1.059 0.62307 1.7092 1.76 1.7092 2.9887v34.677c0 1.2595-0.68279 2.4198-1.7838 3.0315l-31.209 17.339c-1.0629 0.59054-2.357 0.58049-3.4102-0.024l-31.167-17.315c-1.1009-0.61136-1.7837-1.7717-1.7837-3.0311v-34.677c0-1.2287 0.65017-2.366 1.7091-2.9891l0.05-6.3e-4 0.0244-0.0417zm1.6843 33.741-24.069-13.372 24.069-13.371 24.069 13.372zm-27.742-7.4781v26.743l24.274 13.486v-26.743zm31.209 13.486v26.743l24.274-13.486v-26.743z" clip-rule="evenodd" fill="#fff" fill-rule="evenodd" stroke-width="3.4677"/><path d="m300.2-155.98v-31.873c0-26.561-10.624-37.185-37.185-37.185h-31.873c-26.561 0-37.185 10.624-37.185 37.185v31.873c0 26.561 10.624 37.185 37.185 37.185h31.873c26.561 0 37.185-10.624 37.185-37.185z" fill="none" stroke="#fff" stroke-linecap="round" stroke-linejoin="round" stroke-width="7.9683"/></g><g transform="translate(648.3 3.0245)"><text x="-96.696495" y="106.74223" fill="#2f3435" font-family="Nunito" font-size="33.606px" font-weight="900" stroke="#ffffff" stroke-linecap="round" stroke-linejoin="round" stroke-width="1.9846" style="paint-order:stroke fill markers" xml:space="preserve"><tspan x="-96.696495" y="106.74223" fill="#ffffff" stroke="none" stroke-width="1.9846">Models</tspan></text></g></g></g></g><text x="104.3615" y="215.46118" fill="#ffffff" font-family="Nunito" font-size="46.281px" font-weight="900" stroke-linecap="round" stroke-linejoin="round" stroke-width="8.1994" style="paint-order:stroke fill markers" xml:space="preserve"><tspan x="104.3615" y="215.46118" stroke-width="8.1994">Source Files</tspan></text></g><g transform="translate(0 7.4001)"><g transform="matrix(2.2328 0 0 2.2328 -45.695 -2483.1)"><path transform="matrix(-.45672 0 0 -.44545 139.95 1403.8)" d="m174.71 239.14h-26.568-26.568l26.568-46.017 13.284 23.008z" fill="#f6ffff"/><path d="m72.358 1242.2v68.993" fill="none" stroke="#fff" stroke-linecap="round" stroke-width="3" style="paint-order:normal"/></g><g transform="matrix(2.2328 0 0 2.2328 105 -2483.1)"><path transform="matrix(-.45672 0 0 -.44545 139.95 1403.8)" d="m174.71 239.14h-26.568-26.568l26.568-46.017 13.284 23.008z" fill="#f6ffff"/><path d="m71.521 1242.2v68.993" fill="none" stroke="#fff" stroke-linecap="round" stroke-width="3" style="paint-order:normal"/></g><g transform="matrix(2.2328 0 0 2.2328 246 -2483.1)"><path transform="matrix(-.45672 0 0 -.44545 142.93 1403.8)" d="m174.71 239.14h-26.568-26.568l26.568-46.017 13.284 23.008z" fill="#f6ffff"/><path d="m75.275 1242.2v68.993" fill="none" stroke="#fff" stroke-linecap="round" stroke-width="3" style="paint-order:normal"/></g><g transform="matrix(2.2328 0 0 2.2328 404.51 -2483.1)"><path transform="matrix(-.45672 0 0 -.44545 139.95 1403.8)" d="m174.71 239.14h-26.568-26.568l26.568-46.017 13.284 23.008z" fill="#f6ffff"/><path d="m72.358 1242.2v68.993" fill="none" stroke="#fff" stroke-linecap="round" stroke-width="3" style="paint-order:normal"/></g><g transform="matrix(2.2328 0 0 2.2328 561.48 -2483.1)"><path transform="matrix(-.45672 0 0 -.44545 139.95 1403.8)" d="m174.71 239.14h-26.568-26.568l26.568-46.017 13.284 23.008z" fill="#f6ffff"/><path d="m72.358 1242.2v68.993" fill="none" stroke="#fff" stroke-linecap="round" stroke-width="3" style="paint-order:normal"/></g></g><g transform="matrix(2.2328 0 0 2.2328 250.64 -2172.5)"><path transform="matrix(-.45672 0 0 -.44545 142.93 1403.8)" d="m174.71 239.14h-26.568-26.568l26.568-46.017 13.284 23.008z" fill="#f6ffff"/><path d="m75.275 1242.2v68.993" fill="none" stroke="#fff" stroke-linecap="round" stroke-width="3" style="paint-order:normal"/></g><g transform="matrix(2.2328 0 0 2.2328 250.64 -1828.5)"><path transform="matrix(-.45672 0 0 -.44545 142.93 1403.8)" d="m174.71 239.14h-26.568-26.568l26.568-46.017 13.284 23.008z" fill="#f6ffff"/><path d="m75.275 1242.2v68.993" fill="none" stroke="#fff" stroke-linecap="round" stroke-width="3" style="paint-order:normal"/></g><g transform="matrix(2.2328 0 0 2.2328 246 -1508)"><path transform="matrix(-.45672 0 0 -.44545 142.93 1403.8)" d="m174.71 239.14h-26.568-26.568l26.568-46.017 13.284 23.008z" fill="#f6ffff"/><path d="m75.275 1242.2v68.993" fill="none" stroke="#fff" stroke-linecap="round" stroke-width="3" style="paint-order:normal"/></g><g transform="translate(157.58 -297.62)"><g transform="translate(-3.04 792.72)"><g transform="translate(-7.2917 1050.3)" stroke-linecap="round" stroke-linejoin="round"><text x="84.994438" y="110.25403" fill="#2f3435" font-family="Nunito" font-size="33.606px" font-weight="900" stroke="#ffffff" stroke-width="1.9846" style="paint-order:stroke fill markers" xml:space="preserve"><tspan x="84.994438" y="110.25403" fill="#ffffff" stroke="none" stroke-width="1.9846">Xnb</tspan></text><g transform="translate(170.31 -172.53)" fill="none" stroke="#fff" stroke-width="7.9683"><path d="m0.38465 206.84v-31.873c0-26.561-10.624-37.185-37.185-37.185h-31.873c-26.561 0-37.185 10.624-37.185 37.185v31.873c0 26.561 10.624 37.185 37.185 37.185h31.873c26.561 0 37.185-10.624 37.185-37.185z"/><path d="m-65.38 219.06c6.2195 0 11.262-5.0418 11.262-11.261 0-6.22-5.0423-11.262-11.262-11.262-6.2198 0-11.262 5.0418-11.262 11.262 0 6.2195 5.042 11.261 11.262 11.261z"/><path d="m-54.118 207.8v-39.363"/><path d="m-46.734 163.12 12.43 4.1433c3.0279 1.0093 5.4715 4.4091 5.4715 7.5964v3.2935c0 4.3031-3.3467 6.6936-7.3839 5.3124l-12.43-4.1436c-3.0279-1.0093-5.4715-4.4091-5.4715-7.5964v-3.2935c0-4.2497 3.2935-6.6933 7.3839-5.3122z"/></g></g><g transform="translate(-.83885 1049)"><g transform="translate(-56.569 203.65)"><g transform="translate(70.455 -223.51)" fill="#fff" stroke-width="5.0812"><path d="m-89.641 63.748 21.928-40.201c1.9259-3.5307 6.9958-3.5307 8.9216 0l16.1 29.517 5.5146-9.6502c1.9507-3.4136 6.8723-3.4136 8.823 0l11.569 20.246c1.9354 3.3871-0.51066 7.602-4.412 7.602h-63.984c-3.8569 0-6.3077-4.1285-4.4607-7.5146z"/><path d="m-22.603 15.369c0 5.6125-4.5497 10.162-10.162 10.162-5.6127 0-10.162-4.5499-10.162-10.162 0-5.6125 4.5497-10.162 10.162-10.162 5.6127 0 10.162 4.5499 10.162 10.162z"/></g><path d="m70.388-169.34v-31.873c0-26.561-10.624-37.185-37.185-37.185h-31.873c-26.561 0-37.185 10.624-37.185 37.185v31.873c0 26.561 10.624 37.185 37.185 37.185h31.873c26.561 0 37.185-10.624 37.185-37.185z" fill="none" stroke="#fff" stroke-linecap="round" stroke-linejoin="round" stroke-width="7.9683"/></g><text x="-71.876953" y="111.52263" fill="#2f3435" font-family="Nunito" font-size="33.606px" font-weight="900" stroke="#ffffff" stroke-linecap="round" stroke-linejoin="round" stroke-width="1.9846" style="paint-order:stroke fill markers" xml:space="preserve"><tspan x="-71.876953" y="111.52263" fill="#ffffff" stroke="none" stroke-width="1.9846">Xnb</tspan></text></g><g transform="translate(-36.839 1050.6)" stroke-linecap="round" stroke-linejoin="round"><g transform="translate(-27.067 -37.6)" fill="none"><path d="m376.69 71.906v-31.873c0-26.561-10.624-37.185-37.185-37.185h-31.873c-26.561 0-37.185 10.624-37.185 37.185v31.873c0 26.561 10.624 37.185 37.185 37.185h31.873c26.561 0 37.185-10.624 37.185-37.185z" stroke="#fff" stroke-width="7.9683"/><text transform="matrix(1.5693 0 0 1.5693 -408.99 -120.66)" font-family="Nunito" font-size="37.333px" font-weight="900" stop-color="#000000" stroke="#ffffff" stroke-width="8.64" text-align="center" style="paint-order:stroke fill markers;shape-inside:url(#rect6463-5);white-space:pre" xml:space="preserve"><tspan x="442.55212" y="125.67608"><tspan fill="#ffffff" stroke="none">Aa</tspan></tspan></text></g><text x="263.92407" y="109.61552" fill="#2f3435" font-family="Nunito" font-size="33.606px" font-weight="900" stroke="#ffffff" stroke-width="1.9846" style="paint-order:stroke fill markers" xml:space="preserve"><tspan x="263.92407" y="109.61552" fill="#ffffff" stroke="none" stroke-width="1.9846">Xnb</tspan></text></g><g transform="translate(-59.868 1051.4)"><g transform="translate(336.73 -15.556)"><g transform="matrix(3.5511 0 0 3.5511 77.829 -22.892)" fill="#fff" data-name="Layer 2"><path d="m18 11a1 1 0 0 1-1 1 5 5 0 0 0-5 5 1 1 0 0 1-2 0 5 5 0 0 0-5-5 1 1 0 0 1 0-2 5 5 0 0 0 5-5 1 1 0 0 1 2 0 5 5 0 0 0 5 5 1 1 0 0 1 1 1z"/><path d="m19 24a1 1 0 0 1-1 1 2 2 0 0 0-2 2 1 1 0 0 1-2 0 2 2 0 0 0-2-2 1 1 0 0 1 0-2 2 2 0 0 0 2-2 1 1 0 0 1 2 0 2 2 0 0 0 2 2 1 1 0 0 1 1 1z"/><path d="m28 17a1 1 0 0 1-1 1 4 4 0 0 0-4 4 1 1 0 0 1-2 0 4 4 0 0 0-4-4 1 1 0 0 1 0-2 4 4 0 0 0 4-4 1 1 0 0 1 2 0 4 4 0 0 0 4 4 1 1 0 0 1 1 1z"/></g><path d="m187.77 49.863v-31.873c0-26.561-10.624-37.185-37.185-37.185h-31.873c-26.561 0-37.185 10.624-37.185 37.185v31.873c0 26.561 10.624 37.185 37.185 37.185h31.873c26.561 0 37.185-10.624 37.185-37.185z" fill="none" stroke="#fff" stroke-linecap="round" stroke-linejoin="round" stroke-width="7.9683"/></g><g transform="translate(511.3 2.9573)"><text x="-72.494553" y="106.74223" fill="#2f3435" font-family="Nunito" font-size="33.606px" font-weight="900" stroke="#ffffff" stroke-linecap="round" stroke-linejoin="round" stroke-width="1.9846" style="paint-order:stroke fill markers" xml:space="preserve"><tspan x="-72.494553" y="106.74223" fill="#ffffff" stroke="none" stroke-width="1.9846">Xnb</tspan></text></g></g><g transform="translate(444.14 783.78)"><g transform="translate(-486.83 263.37)"><g transform="translate(364.09 190.28)"><path d="m245.39-209.62c1.0472-0.58183 2.3206-0.58183 3.3678 0l31.206 17.336c0.0264 0.0145 0.0524 0.0295 0.0783 0.0447 1.059 0.62307 1.7092 1.76 1.7092 2.9887v34.677c0 1.2595-0.68279 2.4198-1.7838 3.0315l-31.209 17.339c-1.0629 0.59054-2.357 0.58049-3.4102-0.024l-31.167-17.315c-1.1009-0.61136-1.7837-1.7717-1.7837-3.0311v-34.677c0-1.2287 0.65017-2.366 1.7091-2.9891l0.05-6.3e-4 0.0244-0.0417zm1.6843 33.741-24.069-13.372 24.069-13.371 24.069 13.372zm-27.742-7.4781v26.743l24.274 13.486v-26.743zm31.209 13.486v26.743l24.274-13.486v-26.743z" clip-rule="evenodd" fill="#fff" fill-rule="evenodd" stroke-width="3.4677"/><path d="m300.2-155.98v-31.873c0-26.561-10.624-37.185-37.185-37.185h-31.873c-26.561 0-37.185 10.624-37.185 37.185v31.873c0 26.561 10.624 37.185 37.185 37.185h31.873c26.561 0 37.185-10.624 37.185-37.185z" fill="none" stroke="#fff" stroke-linecap="round" stroke-linejoin="round" stroke-width="7.9683"/></g><g transform="translate(648.3 3.0245)"><text x="-69.705284" y="106.74223" fill="#2f3435" font-family="Nunito" font-size="33.606px" font-weight="900" stroke="#ffffff" stroke-linecap="round" stroke-linejoin="round" stroke-width="1.9846" style="paint-order:stroke fill markers" xml:space="preserve"><tspan x="-69.705284" y="106.74223" fill="#ffffff" stroke="none" stroke-width="1.9846">Xnb</tspan></text></g></g></g></g><text x="73.552834" y="1776.3844" fill="#ffffff" font-family="Nunito" font-size="46.281px" font-weight="900" stroke-linecap="round" stroke-linejoin="round" stroke-width="8.1994" style="paint-order:stroke fill markers" xml:space="preserve"><tspan x="73.552834" y="1776.3844" stroke-width="8.1994">Compiled Assets</tspan></text></g><g transform="translate(0 -204.83)"><g transform="matrix(2.2328 0 0 2.2328 -45.695 -898.89)"><path transform="matrix(-.45672 0 0 -.44545 139.95 1403.8)" d="m174.71 239.14h-26.568-26.568l26.568-46.017 13.284 23.008z" fill="#f6ffff"/><path d="m72.358 1242.2v68.993" fill="none" stroke="#fff" stroke-linecap="round" stroke-width="3" style="paint-order:normal"/></g><g transform="matrix(2.2328 0 0 2.2328 105 -898.89)"><path transform="matrix(-.45672 0 0 -.44545 139.95 1403.8)" d="m174.71 239.14h-26.568-26.568l26.568-46.017 13.284 23.008z" fill="#f6ffff"/><path d="m71.521 1242.2v68.993" fill="none" stroke="#fff" stroke-linecap="round" stroke-width="3" style="paint-order:normal"/></g><g transform="matrix(2.2328 0 0 2.2328 246 -898.89)"><path transform="matrix(-.45672 0 0 -.44545 142.93 1403.8)" d="m174.71 239.14h-26.568-26.568l26.568-46.017 13.284 23.008z" fill="#f6ffff"/><path d="m75.275 1242.2v68.993" fill="none" stroke="#fff" stroke-linecap="round" stroke-width="3" style="paint-order:normal"/></g><g transform="matrix(2.2328 0 0 2.2328 404.51 -898.89)"><path transform="matrix(-.45672 0 0 -.44545 139.95 1403.8)" d="m174.71 239.14h-26.568-26.568l26.568-46.017 13.284 23.008z" fill="#f6ffff"/><path d="m72.358 1242.2v68.993" fill="none" stroke="#fff" stroke-linecap="round" stroke-width="3" style="paint-order:normal"/></g><g transform="matrix(2.2328 0 0 2.2328 561.48 -898.89)"><path transform="matrix(-.45672 0 0 -.44545 139.95 1403.8)" d="m174.71 239.14h-26.568-26.568l26.568-46.017 13.284 23.008z" fill="#f6ffff"/><path d="m72.358 1242.2v68.993" fill="none" stroke="#fff" stroke-linecap="round" stroke-width="3" style="paint-order:normal"/></g></g><g fill="#2f3435" font-family="Nunito" font-size="33.606px" font-weight="bold" stroke="#ffffff" stroke-linecap="round" stroke-linejoin="round" stroke-width="1.9846"><text transform="translate(-165.33 815.14)" x="1171.9983" y="316.81091" style="inline-size:869.632;paint-order:stroke fill markers;white-space:pre" xml:space="preserve"><tspan x="1171.9983" y="316.81091"><tspan fill="#ffffff" stroke="none">When performing a build of your project, the </tspan></tspan><tspan x="1171.9983" y="358.81802"><tspan fill="#6495ed" stroke="#b1caf6">MonoGame.Content.Builder.Tasks</tspan><tspan fill="#ffffff" stroke="none"> reference will </tspan></tspan><tspan x="1171.9983" y="400.82516"><tspan fill="#ffffff" stroke="none">automatically compile the source files defined in the </tspan></tspan><tspan x="1171.9983" y="442.8323"><tspan fill="#6495ed">Content.mgcb</tspan><tspan fill="#ffffff" stroke="none"> content project file into </tspan><tspan fill="#6495ed" stroke="#b1caf6">XNB</tspan><tspan fill="#ffffff" stroke="none"> files using </tspan></tspan><tspan x="1171.9983" y="484.83944"><tspan fill="#ffffff" stroke="none">the </tspan><tspan fill="#6495ed" stroke="#b1caf6">MonoGame Content Builder (MGCB) Tool</tspan><tspan fill="#ffffff" stroke="#b1caf6">.</tspan></tspan></text><text transform="translate(-165.46 1215.8)" x="1171.9983" y="316.81091" style="inline-size:869.632;paint-order:stroke fill markers;white-space:pre" xml:space="preserve"><tspan x="1171.9983" y="316.81091"><tspan fill="#ffffff" stroke="none">The compiled assets are then automatically copied </tspan></tspan><tspan x="1171.9983" y="358.81802" fill="#ffffff" stroke="none"><tspan>from your content project build folder to your </tspan><tspan>game's </tspan></tspan><tspan x="1171.9983" y="400.82516"><tspan fill="#ffffff" stroke="none">build folder</tspan></tspan></text><text transform="translate(-165.33 1585.3)" x="1171.9983" y="316.81091" style="inline-size:869.632;paint-order:stroke fill markers;white-space:pre" xml:space="preserve"><tspan x="1171.9983" y="316.81091"><tspan fill="#ffffff" stroke="none">At runtime in the game, load the compiled assets using </tspan></tspan><tspan x="1171.9983" y="358.81802"><tspan fill="#ffffff" stroke="none">the </tspan><tspan fill="#6495ed">ContentManager</tspan><tspan fill="#ffffff" stroke="none"> object</tspan></tspan></text><text transform="translate(-166.58 526.95)" x="1171.9983" y="316.81091" style="inline-size:869.632;paint-order:stroke fill markers;white-space:pre" xml:space="preserve"><tspan x="1171.9983" y="316.81091"><tspan fill="#ffffff" stroke="none">When saving the content project in the </tspan><tspan fill="#6495ed" stroke="#b1caf6">MGCB Editor</tspan><tspan stroke="#b1caf6">,</tspan><tspan fill="#ffffff" stroke="none"> it </tspan></tspan><tspan x="1171.9983" y="358.81802"><tspan fill="#ffffff" stroke="none">will generate the </tspan><tspan fill="#6495ed" stroke="#b1caf6">Content.mgcb</tspan><tspan stroke="#b1caf6"> </tspan><tspan fill="#ffffff" stroke="none">content project file</tspan></tspan></text></g><g transform="translate(-491.46 1810.9)" stroke-linecap="round" stroke-linejoin="round"><rect x="557.35" y="53.455" width="706.84" height="99.775" rx="15.328" ry="15.328" fill="#e73c00" stroke="#fff" stroke-width="11.339" style="paint-order:stroke fill markers"/><text x="773.8064" y="112.16428" fill="#2f3435" font-family="Nunito" font-size="33.606px" font-weight="900" stroke="#ffffff" stroke-width="1.9846" style="paint-order:stroke fill markers" xml:space="preserve"><tspan x="773.8064" y="112.16428" fill="#ffffff" stroke="none" stroke-width="1.9846">ContentManager</tspan></text></g></g><text transform="translate(841.06 -128.22)" fill="#969696" font-family="Nunito" font-size="37.333px" font-weight="900" stop-color="#000000" stroke-linecap="round" stroke-linejoin="round" stroke-width="2" style="paint-order:stroke fill markers;shape-inside:url(#rect77144-2);white-space:pre" xml:space="preserve"><tspan x="-7.0703125" y="61.330381">High-Level View </tspan></text></g></svg>
