<?xml version="1.0" encoding="UTF-8" standalone="no"?>
<svg
   width="1104.6782"
   height="2168.5442"
   version="1.1"
   viewBox="0 0 1104.6783 2168.5442"
   xml:space="preserve"
   id="svg500"
   sodipodi:docname="content-pipeline-workflow-full.svg"
   inkscape:export-filename="content-pipeline-workflow-full.png"
   inkscape:export-xdpi="96"
   inkscape:export-ydpi="96"
   inkscape:version="1.2.2 (732a01da63, 2022-12-09)"
   xmlns:inkscape="http://www.inkscape.org/namespaces/inkscape"
   xmlns:sodipodi="http://sodipodi.sourceforge.net/DTD/sodipodi-0.dtd"
   xmlns="http://www.w3.org/2000/svg"
   xmlns:svg="http://www.w3.org/2000/svg"><defs
     id="defs504" /><sodipodi:namedview
     id="namedview502"
     pagecolor="#ffffff"
     bordercolor="#000000"
     borderopacity="0.25"
     inkscape:showpageshadow="2"
     inkscape:pageopacity="0.0"
     inkscape:pagecheckerboard="0"
     inkscape:deskcolor="#d1d1d1"
     showgrid="false"
     inkscape:zoom="0.68650512"
     inkscape:cx="895.11349"
     inkscape:cy="1241.0687"
     inkscape:window-width="3840"
     inkscape:window-height="2054"
     inkscape:window-x="-11"
     inkscape:window-y="-11"
     inkscape:window-maximized="1"
     inkscape:current-layer="svg500" /><rect
     x="1.109255"
     y="1.109255"
     width="1102.4597"
     height="2166.3257"
     rx="3.3497"
     ry="2.0616"
     fill="#1d1f20"
     stroke="#ffffff"
     stroke-linecap="round"
     stroke-width="2.21851"
     style="paint-order:normal;stroke-width:11;stroke-dasharray:none"
     id="rect2" /><g
     font-family="Nunito"
     id="g16"
     transform="translate(-511.24623,198.32783)"><g
       stroke-linecap="round"
       id="g12"><text
         transform="translate(555.92,-125.42)"
         fill="#e73c00"
         font-size="53.333px"
         font-weight="900"
         stop-color="#000000"
         stroke-linejoin="round"
         stroke-width="10"
         style="white-space:pre;shape-inside:url(#rect77030-8);display:inline;paint-order:stroke fill markers"
         xml:space="preserve"
         id="text6"><tspan
           x="0"
           y="0"
           id="tspan5726">MonoGame Content Pipeline Workflow</tspan></text><text
         transform="matrix(0.26458,0,0,0.26458,-16.711667,-50.585012)"
         fill="#e73c00"
         font-size="42.667px"
         font-weight="900"
         stroke="#ffffff"
         stroke-width="3.2239"
         style="white-space:pre;shape-inside:url(#rect2);display:inline"
         xml:space="preserve"
         id="text8" /><text
         transform="translate(0,3.8018e-5)"
         fill="none"
         font-size="16px"
         font-weight="bold"
         stop-color="#000000"
         stroke="#ffffff"
         stroke-linejoin="round"
         stroke-width="1.9994"
         style="white-space:pre;shape-inside:url(#rect29998);display:inline;paint-order:stroke fill markers"
         xml:space="preserve"
         id="text10" /></g><text
       transform="translate(-111.25,12.452)"
       fill="none"
       font-size="37.333px"
       font-weight="bold"
       stop-color="#000000"
       text-align="center"
       style="white-space:pre;shape-inside:url(#rect17303);display:inline;paint-order:stroke fill markers"
       xml:space="preserve"
       id="text14" /></g><g
     id="g2462"
     transform="translate(5.769786,-0.34788549)"><rect
       x="193.14897"
       y="617.55499"
       width="706.84003"
       height="99.775002"
       rx="15.328"
       ry="15.328"
       fill="#e73c00"
       stroke="#ffffff"
       stroke-width="11.339"
       style="stroke-linecap:round;stroke-linejoin:round;paint-order:stroke fill markers"
       id="rect90" /><text
       x="440.05225"
       y="679.74249"
       fill="#2f3435"
       font-family="Nunito"
       font-size="33.606px"
       font-weight="900"
       stroke="#ffffff"
       stroke-width="1.9846"
       style="stroke-linecap:round;stroke-linejoin:round;paint-order:stroke fill markers"
       xml:space="preserve"
       id="text94"><tspan
         x="440.05225"
         y="679.74249"
         fill="#ffffff"
         stroke="none"
         stroke-width="1.9846"
         id="tspan92">MGCB Editor</tspan></text><g
       transform="translate(-293.843,596.18)"
       stroke="#ffffff"
       id="g122"
       style="stroke-linecap:round"><g
         stroke-width="10.076"
         id="g118"><path
           d="m 813.54,375.99 h 53.737"
           id="path112" /><path
           d="m 813.54,349.12 h 53.737"
           id="path114" /><path
           d="m 813.54,402.86 h 33.586"
           id="path116" /></g><path
         d="m 893.53,391.92 v -31.873 c 0,-26.561 -10.624,-37.185 -37.185,-37.185 h -31.873 c -26.561,0 -37.185,10.624 -37.185,37.185 v 31.873 c 0,26.561 10.624,37.185 37.185,37.185 h 31.873 c 26.561,0 37.185,-10.624 37.185,-37.185 z"
         fill="none"
         stroke-linejoin="round"
         stroke-width="7.9683"
         id="path120" /></g><text
       x="432.10699"
       y="1060.5745"
       fill="#2f3435"
       font-family="Nunito"
       font-size="33.606px"
       font-weight="900"
       stroke="#ffffff"
       stroke-linejoin="round"
       stroke-width="1.9846"
       style="stroke-linecap:round;paint-order:stroke fill markers"
       xml:space="preserve"
       id="text126"><tspan
         x="432.10699"
         y="1060.5745"
         fill="#ffffff"
         stroke="none"
         stroke-width="1.9846"
         id="tspan124">Content.mgcb</tspan></text><text
       x="344.5885"
       y="416.78302"
       fill="#2f3435"
       font-family="Nunito"
       font-size="33.606px"
       font-weight="900"
       stroke="#ffffff"
       stroke-width="1.9846"
       style="stroke-linecap:round;stroke-linejoin:round;paint-order:stroke fill markers"
       xml:space="preserve"
       id="text132"><tspan
         x="344.5885"
         y="416.78302"
         fill="#ffffff"
         stroke="none"
         stroke-width="1.9846"
         id="tspan130">Audio</tspan></text><path
       d="m 445.68065,340.839 v -31.873 c 0,-26.561 -10.624,-37.185 -37.185,-37.185 h -31.873 c -26.561,0 -37.185,10.624 -37.185,37.185 v 31.873 c 0,26.561 10.624,37.185 37.185,37.185 h 31.873 c 26.561,0 37.185,-10.624 37.185,-37.185 z"
       fill="none"
       id="path134"
       style="stroke:#ffffff;stroke-width:7.9683;stroke-linecap:round;stroke-linejoin:round" /><path
       d="m 379.916,353.059 c 6.2195,0 11.262,-5.0418 11.262,-11.261 0,-6.22 -5.0423,-11.262 -11.262,-11.262 -6.2198,0 -11.262,5.0418 -11.262,11.262 0,6.2195 5.042,11.261 11.262,11.261 z"
       fill="none"
       id="path136"
       style="stroke:#ffffff;stroke-width:7.9683;stroke-linecap:round;stroke-linejoin:round" /><path
       d="M 391.178,341.799 V 302.436"
       id="path138"
       style="stroke:#ffffff;stroke-width:7.9683;stroke-linecap:round;stroke-linejoin:round" /><path
       d="m 398.562,297.119 12.43,4.1433 c 3.0279,1.0093 5.4715,4.4091 5.4715,7.5964 v 3.2935 c 0,4.3031 -3.3467,6.6936 -7.3839,5.3124 l -12.43,-4.1436 c -3.0279,-1.0093 -5.4715,-4.4091 -5.4715,-7.5964 v -3.2935 c 0,-4.2497 3.2935,-6.6933 7.3839,-5.3122 z"
       fill="none"
       id="path140"
       style="stroke:#ffffff;stroke-width:7.9683;stroke-linecap:round;stroke-linejoin:round" /><path
       d="m 205.684,349.148 21.928,-40.201 c 1.9259,-3.5307 6.9958,-3.5307 8.9216,0 l 16.1,29.517 5.5146,-9.6502 c 1.9507,-3.4136 6.8723,-3.4136 8.823,0 l 11.569,20.246 c 1.9354,3.3871 -0.51066,7.602 -4.412,7.602 h -63.984 c -3.8569,0 -6.3077,-4.1285 -4.4607,-7.5146 z"
       id="path146"
       style="fill:#ffffff;stroke-width:5.0812" /><path
       d="m 272.722,300.769 c 0,5.6125 -4.5497,10.162 -10.162,10.162 -5.6127,0 -10.162,-4.5499 -10.162,-10.162 0,-5.6125 4.5497,-10.162 10.162,-10.162 5.6127,0 10.162,4.5499 10.162,10.162 z"
       id="path148"
       style="fill:#ffffff;stroke-width:5.0812" /><path
       d="m 295.258,339.57 v -31.873 c 0,-26.561 -10.624,-37.185 -37.185,-37.185 H 226.2 c -26.561,0 -37.185,10.624 -37.185,37.185 v 31.873 c 0,26.561 10.624,37.185 37.185,37.185 h 31.873 c 26.561,0 37.185,-10.624 37.185,-37.185 z"
       fill="none"
       stroke="#ffffff"
       stroke-linecap="round"
       stroke-linejoin="round"
       stroke-width="7.9683"
       id="path152" /><text
       x="184.74251"
       y="413.27084"
       fill="#2f3435"
       font-family="Nunito"
       font-size="33.606px"
       font-weight="900"
       stroke="#ffffff"
       stroke-linecap="round"
       stroke-linejoin="round"
       stroke-width="1.9846"
       style="paint-order:stroke fill markers"
       xml:space="preserve"
       id="text158"><tspan
         x="184.74251"
         y="413.27084"
         fill="#ffffff"
         stroke="none"
         stroke-width="1.9846"
         id="tspan156">Images</tspan></text><path
       d="m 595.062,341.154 v -31.873 c 0,-26.561 -10.624,-37.185 -37.185,-37.185 h -31.873 c -26.561,0 -37.185,10.624 -37.185,37.185 v 31.873 c 0,26.561 10.624,37.185 37.185,37.185 h 31.873 c 26.561,0 37.185,-10.624 37.185,-37.185 z"
       stroke="#ffffff"
       stroke-width="7.9683"
       id="path162"
       style="fill:none;stroke-linecap:round;stroke-linejoin:round" /><text
       x="495.96539"
       y="416.46353"
       fill="#2f3435"
       font-family="Nunito"
       font-size="33.606px"
       font-weight="900"
       stroke="#ffffff"
       stroke-width="1.9846"
       style="stroke-linecap:round;stroke-linejoin:round;paint-order:stroke fill markers"
       xml:space="preserve"
       id="text174"><tspan
         x="495.96539"
         y="416.46353"
         fill="#ffffff"
         stroke="none"
         stroke-width="1.9846"
         id="tspan172">Fonts</tspan></text><path
       d="m 700.8888,308.2691 a 3.5511,3.5511 0 0 1 -3.5511,3.5511 17.7555,17.7555 0 0 0 -17.7555,17.7555 3.5511,3.5511 0 0 1 -7.1022,0 17.7555,17.7555 0 0 0 -17.7555,-17.7555 3.5511,3.5511 0 0 1 0,-7.1022 17.7555,17.7555 0 0 0 17.7555,-17.7555 3.5511,3.5511 0 0 1 7.1022,0 17.7555,17.7555 0 0 0 17.7555,17.7555 3.5511,3.5511 0 0 1 3.5511,3.5511 z"
       id="path178"
       style="fill:#ffffff;stroke-width:3.5511" /><path
       d="m 704.4399,354.4334 a 3.5511,3.5511 0 0 1 -3.5511,3.5511 7.1022,7.1022 0 0 0 -7.1022,7.1022 3.5511,3.5511 0 0 1 -7.1022,0 7.1022,7.1022 0 0 0 -7.1022,-7.1022 3.5511,3.5511 0 0 1 0,-7.1022 7.1022,7.1022 0 0 0 7.1022,-7.1022 3.5511,3.5511 0 0 1 7.1022,0 7.1022,7.1022 0 0 0 7.1022,7.1022 3.5511,3.5511 0 0 1 3.5511,3.5511 z"
       id="path180"
       style="fill:#ffffff;stroke-width:3.5511" /><path
       d="m 736.3998,329.5757 a 3.5511,3.5511 0 0 1 -3.5511,3.5511 14.2044,14.2044 0 0 0 -14.2044,14.2044 3.5511,3.5511 0 0 1 -7.1022,0 14.2044,14.2044 0 0 0 -14.2044,-14.2044 3.5511,3.5511 0 0 1 0,-7.1022 14.2044,14.2044 0 0 0 14.2044,-14.2044 3.5511,3.5511 0 0 1 7.1022,0 14.2044,14.2044 0 0 0 14.2044,14.2044 3.5511,3.5511 0 0 1 3.5511,3.5511 z"
       id="path182"
       style="fill:#ffffff;stroke-width:3.5511" /><path
       d="m 746.91,341.962 v -31.873 c 0,-26.561 -10.624,-37.185 -37.185,-37.185 h -31.873 c -26.561,0 -37.185,10.624 -37.185,37.185 v 31.873 c 0,26.561 10.624,37.185 37.185,37.185 h 31.873 c 26.561,0 37.185,-10.624 37.185,-37.185 z"
       fill="none"
       stroke="#ffffff"
       stroke-linecap="round"
       stroke-linejoin="round"
       stroke-width="7.9683"
       id="path186" /><text
       x="637.01349"
       y="417.35452"
       fill="#2f3435"
       font-family="Nunito"
       font-size="33.606px"
       font-weight="900"
       stroke="#ffffff"
       stroke-linecap="round"
       stroke-linejoin="round"
       stroke-width="1.9846"
       style="paint-order:stroke fill markers"
       xml:space="preserve"
       id="text192"><tspan
         x="637.01349"
         y="417.35452"
         fill="#ffffff"
         stroke="none"
         stroke-width="1.9846"
         id="tspan190">Effects</tspan></text><path
       d="m 849.069,284.04 c 1.0472,-0.58183 2.3206,-0.58183 3.3678,0 l 31.206,17.336 c 0.0264,0.0145 0.0524,0.0295 0.0783,0.0447 1.059,0.62307 1.7092,1.76 1.7092,2.9887 v 34.677 c 0,1.2595 -0.68279,2.4198 -1.7838,3.0315 l -31.209,17.339 c -1.0629,0.59054 -2.357,0.58049 -3.4102,-0.024 l -31.167,-17.315 c -1.1009,-0.61136 -1.7837,-1.7717 -1.7837,-3.0311 v -34.677 c 0,-1.2287 0.65017,-2.366 1.7091,-2.9891 l 0.05,-6.3e-4 0.0244,-0.0417 z m 1.6843,33.741 -24.069,-13.372 24.069,-13.371 24.069,13.372 z m -27.742,-7.4781 v 26.743 l 24.274,13.486 v -26.743 z m 31.209,13.486 v 26.743 l 24.274,-13.486 v -26.743 z"
       clip-rule="evenodd"
       fill="#ffffff"
       fill-rule="evenodd"
       stroke-width="3.4677"
       id="path198" /><path
       d="m 903.879,337.68 v -31.873 c 0,-26.561 -10.624,-37.185 -37.185,-37.185 h -31.873 c -26.561,0 -37.185,10.624 -37.185,37.185 v 31.873 c 0,26.561 10.624,37.185 37.185,37.185 h 31.873 c 26.561,0 37.185,-10.624 37.185,-37.185 z"
       fill="none"
       stroke="#ffffff"
       stroke-linecap="round"
       stroke-linejoin="round"
       stroke-width="7.9683"
       id="path200" /><text
       x="791.1925"
       y="413.14673"
       fill="#2f3435"
       font-family="Nunito"
       font-size="33.606px"
       font-weight="900"
       stroke="#ffffff"
       stroke-linecap="round"
       stroke-linejoin="round"
       stroke-width="1.9846"
       style="paint-order:stroke fill markers"
       xml:space="preserve"
       id="text206"><tspan
         x="791.1925"
         y="413.14673"
         fill="#ffffff"
         stroke="none"
         stroke-width="1.9846"
         id="tspan204">Models</tspan></text><text
       x="409.80051"
       y="228.72118"
       fill="#ffffff"
       font-family="Nunito"
       font-size="46.281px"
       font-weight="900"
       stroke-linecap="round"
       stroke-linejoin="round"
       stroke-width="8.1994"
       style="paint-order:stroke fill markers"
       xml:space="preserve"
       id="text218"><tspan
         x="409.80051"
         y="228.72118"
         stroke-width="8.1994"
         id="tspan216">Source Files</tspan></text><g
       transform="matrix(2.2328,0,0,2.2328,82.164,-2340.5099)"
       id="g226"><path
         transform="matrix(-0.45672,0,0,-0.44545,139.95,1403.8)"
         d="m 174.71,239.14 h -26.568 -26.568 l 26.568,-46.017 13.284,23.008 z"
         fill="#f6ffff"
         id="path222" /><path
         d="m 72.358,1242.2 v 68.993"
         fill="none"
         stroke="#ffffff"
         stroke-linecap="round"
         stroke-width="3"
         style="paint-order:normal"
         id="path224" /></g><g
       transform="matrix(2.2328,0,0,2.2328,232.859,-2340.5099)"
       id="g232"><path
         transform="matrix(-0.45672,0,0,-0.44545,139.95,1403.8)"
         d="m 174.71,239.14 h -26.568 -26.568 l 26.568,-46.017 13.284,23.008 z"
         fill="#f6ffff"
         id="path228" /><path
         d="m 71.521,1242.2 v 68.993"
         fill="none"
         stroke="#ffffff"
         stroke-linecap="round"
         stroke-width="3"
         style="paint-order:normal"
         id="path230" /></g><g
       transform="matrix(2.2328,0,0,2.2328,373.859,-2340.5099)"
       id="g238"><path
         transform="matrix(-0.45672,0,0,-0.44545,142.93,1403.8)"
         d="m 174.71,239.14 h -26.568 -26.568 l 26.568,-46.017 13.284,23.008 z"
         fill="#f6ffff"
         id="path234" /><path
         d="m 75.275,1242.2 v 68.993"
         fill="none"
         stroke="#ffffff"
         stroke-linecap="round"
         stroke-width="3"
         style="paint-order:normal"
         id="path236" /></g><g
       transform="matrix(2.2328,0,0,2.2328,532.369,-2340.5099)"
       id="g244"><path
         transform="matrix(-0.45672,0,0,-0.44545,139.95,1403.8)"
         d="m 174.71,239.14 h -26.568 -26.568 l 26.568,-46.017 13.284,23.008 z"
         fill="#f6ffff"
         id="path240" /><path
         d="m 72.358,1242.2 v 68.993"
         fill="none"
         stroke="#ffffff"
         stroke-linecap="round"
         stroke-width="3"
         style="paint-order:normal"
         id="path242" /></g><g
       transform="matrix(2.2328,0,0,2.2328,689.339,-2340.5099)"
       id="g250"><path
         transform="matrix(-0.45672,0,0,-0.44545,139.95,1403.8)"
         d="m 174.71,239.14 h -26.568 -26.568 l 26.568,-46.017 13.284,23.008 z"
         fill="#f6ffff"
         id="path246" /><path
         d="m 72.358,1242.2 v 68.993"
         fill="none"
         stroke="#ffffff"
         stroke-linecap="round"
         stroke-width="3"
         style="paint-order:normal"
         id="path248" /></g><path
       d="m 519.47006,859.24577 h 27.0931 27.0931 l -27.0931,45.76855 -13.54655,-22.88378 z"
       fill="#f6ffff"
       id="path254"
       style="stroke-width:1.0071" /><path
       d="M 546.57302,736.27416 V 890.32173"
       fill="none"
       stroke="#ffffff"
       stroke-linecap="round"
       stroke-width="6.6984"
       style="paint-order:normal"
       id="path256" /></g><g
     transform="matrix(2.2328,0,0,2.2328,384.26879,-1693.6579)"
     id="g264"><path
       transform="matrix(-0.45672,0,0,-0.44545,142.93,1403.8)"
       d="m 174.71,239.14 h -26.568 -26.568 l 26.568,-46.017 13.284,23.008 z"
       fill="#f6ffff"
       id="path260" /><path
       d="m 75.275,1242.2 v 68.993"
       fill="none"
       stroke="#ffffff"
       stroke-linecap="round"
       stroke-width="3"
       style="paint-order:normal"
       id="path262" /></g><g
     transform="translate(133.63051,10.392115)"
     stroke-linecap="round"
     stroke-linejoin="round"
     id="g110"><rect
       x="65.289001"
       y="1254"
       width="706.84003"
       height="117.11"
       rx="15.328"
       ry="15.328"
       fill="#e73c00"
       stroke="#ffffff"
       stroke-width="11.339"
       style="paint-order:stroke fill markers"
       id="rect98" /><g
       transform="translate(900.85,86.476)"
       fill="#2f3435"
       font-family="Nunito"
       font-size="33.606px"
       font-weight="900"
       stroke="#ffffff"
       stroke-width="1.9846"
       id="g108"><text
         x="-756.34918"
         y="1238.3788"
         style="paint-order:stroke fill markers"
         xml:space="preserve"
         id="text106"><tspan
           x="-756.34918"
           y="1238.3788"
           fill="#ffffff"
           stroke="none"
           stroke-width="1.9846"
           id="tspan104">MonoGame.Content.Builder.Tasks</tspan></text></g></g><g
     transform="matrix(2.2328,0,0,2.2328,379.63051,-1373.1579)"
     id="g270"><path
       transform="matrix(-0.45672,0,0,-0.44545,142.93,1403.8)"
       d="m 174.71,239.14 h -26.568 -26.568 l 26.568,-46.017 13.284,23.008 z"
       fill="#f6ffff"
       id="path266" /><path
       d="m 75.275,1242.2 v 68.993"
       fill="none"
       stroke="#ffffff"
       stroke-linecap="round"
       stroke-width="3"
       style="paint-order:normal"
       id="path268" /></g><text
     x="365.87326"
     y="1790.4961"
     fill="#2f3435"
     font-family="Nunito"
     font-size="33.606px"
     font-weight="900"
     stroke="#ffffff"
     stroke-width="1.9846"
     style="stroke-linecap:round;stroke-linejoin:round;paint-order:stroke fill markers"
     xml:space="preserve"
     id="text274"><tspan
       x="365.87326"
       y="1790.4961"
       fill="#ffffff"
       stroke="none"
       stroke-width="1.9846"
       id="tspan272">Xnb</tspan></text><path
     d="m 451.57346,1714.5521 v -31.873 c 0,-26.561 -10.624,-37.185 -37.185,-37.185 h -31.873 c -26.561,0 -37.185,10.624 -37.185,37.185 v 31.873 c 0,26.561 10.624,37.185 37.185,37.185 h 31.873 c 26.561,0 37.185,-10.624 37.185,-37.185 z"
     id="path276"
     style="fill:none;stroke:#ffffff;stroke-width:7.9683;stroke-linecap:round;stroke-linejoin:round" /><path
     d="m 385.80881,1726.7721 c 6.2195,0 11.262,-5.0418 11.262,-11.261 0,-6.22 -5.0423,-11.262 -11.262,-11.262 -6.2198,0 -11.262,5.0418 -11.262,11.262 0,6.2195 5.042,11.261 11.262,11.261 z"
     id="path278"
     style="fill:none;stroke:#ffffff;stroke-width:7.9683;stroke-linecap:round;stroke-linejoin:round" /><path
     d="m 397.07081,1715.5121 v -39.363"
     id="path280"
     style="fill:none;stroke:#ffffff;stroke-width:7.9683;stroke-linecap:round;stroke-linejoin:round" /><path
     d="m 404.45481,1670.8321 12.43,4.1433 c 3.0279,1.0093 5.4715,4.4091 5.4715,7.5964 v 3.2935 c 0,4.3031 -3.3467,6.6936 -7.3839,5.3124 l -12.43,-4.1436 c -3.0279,-1.0093 -5.4715,-4.4091 -5.4715,-7.5964 v -3.2935 c 0,-4.2497 3.2935,-6.6933 7.3839,-5.3122 z"
     id="path282"
     style="fill:none;stroke:#ffffff;stroke-width:7.9683;stroke-linecap:round;stroke-linejoin:round" /><path
     d="m 211.57666,1722.8301 21.928,-40.201 c 1.9259,-3.5307 6.9958,-3.5307 8.9216,0 l 16.1,29.517 5.5146,-9.6502 c 1.9507,-3.4136 6.8723,-3.4136 8.823,0 l 11.569,20.246 c 1.9354,3.3871 -0.51066,7.602 -4.412,7.602 h -63.984 c -3.8569,0 -6.3077,-4.1285 -4.4607,-7.5146 z"
     id="path288"
     style="fill:#ffffff;stroke-width:5.0812" /><path
     d="m 278.61466,1674.4511 c 0,5.6125 -4.5497,10.162 -10.162,10.162 -5.6127,0 -10.162,-4.5499 -10.162,-10.162 0,-5.6125 4.5497,-10.162 10.162,-10.162 5.6127,0 10.162,4.5499 10.162,10.162 z"
     id="path290"
     style="fill:#ffffff;stroke-width:5.0812" /><path
     d="m 301.15066,1713.2521 v -31.873 c 0,-26.561 -10.624,-37.185 -37.185,-37.185 h -31.873 c -26.561,0 -37.185,10.624 -37.185,37.185 v 31.873 c 0,26.561 10.624,37.185 37.185,37.185 h 31.873 c 26.561,0 37.185,-10.624 37.185,-37.185 z"
     fill="none"
     stroke="#ffffff"
     stroke-linecap="round"
     stroke-linejoin="round"
     stroke-width="7.9683"
     id="path294" /><text
     x="215.45471"
     y="1790.4647"
     fill="#2f3435"
     font-family="Nunito"
     font-size="33.606px"
     font-weight="900"
     stroke="#ffffff"
     stroke-linecap="round"
     stroke-linejoin="round"
     stroke-width="1.9846"
     style="paint-order:stroke fill markers"
     xml:space="preserve"
     id="text300"><tspan
       x="215.45471"
       y="1790.4647"
       fill="#ffffff"
       stroke="none"
       stroke-width="1.9846"
       id="tspan298">Xnb</tspan></text><path
     d="m 600.95451,1714.8481 v -31.873 c 0,-26.561 -10.624,-37.185 -37.185,-37.185 h -31.873 c -26.561,0 -37.185,10.624 -37.185,37.185 v 31.873 c 0,26.561 10.624,37.185 37.185,37.185 h 31.873 c 26.561,0 37.185,-10.624 37.185,-37.185 z"
     stroke="#ffffff"
     stroke-width="7.9683"
     id="path304"
     style="fill:none;stroke-linecap:round;stroke-linejoin:round" /><text
     x="515.25555"
     y="1790.1576"
     fill="#2f3435"
     font-family="Nunito"
     font-size="33.606px"
     font-weight="900"
     stroke="#ffffff"
     stroke-width="1.9846"
     style="stroke-linecap:round;stroke-linejoin:round;paint-order:stroke fill markers"
     xml:space="preserve"
     id="text316"><tspan
       x="515.25555"
       y="1790.1576"
       fill="#ffffff"
       stroke="none"
       stroke-width="1.9846"
       id="tspan314">Xnb</tspan></text><path
     d="m 706.78131,1681.9562 a 3.5511,3.5511 0 0 1 -3.5511,3.5511 17.7555,17.7555 0 0 0 -17.7555,17.7555 3.5511,3.5511 0 0 1 -7.1022,0 17.7555,17.7555 0 0 0 -17.7555,-17.7555 3.5511,3.5511 0 0 1 0,-7.1022 17.7555,17.7555 0 0 0 17.7555,-17.7555 3.5511,3.5511 0 0 1 7.1022,0 17.7555,17.7555 0 0 0 17.7555,17.7555 3.5511,3.5511 0 0 1 3.5511,3.5511 z"
     id="path320"
     style="fill:#ffffff;stroke-width:3.5511" /><path
     d="m 710.33241,1728.1205 a 3.5511,3.5511 0 0 1 -3.5511,3.5511 7.1022,7.1022 0 0 0 -7.1022,7.1022 3.5511,3.5511 0 0 1 -7.1022,0 7.1022,7.1022 0 0 0 -7.1022,-7.1022 3.5511,3.5511 0 0 1 0,-7.1022 7.1022,7.1022 0 0 0 7.1022,-7.1022 3.5511,3.5511 0 0 1 7.1022,0 7.1022,7.1022 0 0 0 7.1022,7.1022 3.5511,3.5511 0 0 1 3.5511,3.5511 z"
     id="path322"
     style="fill:#ffffff;stroke-width:3.5511" /><path
     d="m 742.29231,1703.2628 a 3.5511,3.5511 0 0 1 -3.5511,3.5511 14.2044,14.2044 0 0 0 -14.2044,14.2044 3.5511,3.5511 0 0 1 -7.1022,0 14.2044,14.2044 0 0 0 -14.2044,-14.2044 3.5511,3.5511 0 0 1 0,-7.1022 14.2044,14.2044 0 0 0 14.2044,-14.2044 3.5511,3.5511 0 0 1 7.1022,0 14.2044,14.2044 0 0 0 14.2044,14.2044 3.5511,3.5511 0 0 1 3.5511,3.5511 z"
     id="path324"
     style="fill:#ffffff;stroke-width:3.5511" /><path
     d="m 752.80251,1715.6491 v -31.873 c 0,-26.561 -10.624,-37.185 -37.185,-37.185 h -31.873 c -26.561,0 -37.185,10.624 -37.185,37.185 v 31.873 c 0,26.561 10.624,37.185 37.185,37.185 h 31.873 c 26.561,0 37.185,-10.624 37.185,-37.185 z"
     fill="none"
     stroke="#ffffff"
     stroke-linecap="round"
     stroke-linejoin="round"
     stroke-width="7.9683"
     id="path328" /><text
     x="667.10791"
     y="1791.0416"
     fill="#2f3435"
     font-family="Nunito"
     font-size="33.606px"
     font-weight="900"
     stroke="#ffffff"
     stroke-linecap="round"
     stroke-linejoin="round"
     stroke-width="1.9846"
     style="paint-order:stroke fill markers"
     xml:space="preserve"
     id="text334"><tspan
       x="667.10791"
       y="1791.0416"
       fill="#ffffff"
       stroke="none"
       stroke-width="1.9846"
       id="tspan332">Xnb</tspan></text><path
     d="m 854.96051,1657.7521 c 1.0472,-0.5818 2.3206,-0.5818 3.3678,0 l 31.206,17.336 c 0.0264,0.014 0.0524,0.03 0.0783,0.045 1.059,0.6231 1.7092,1.76 1.7092,2.9887 v 34.677 c 0,1.2595 -0.68279,2.4198 -1.7838,3.0315 l -31.209,17.339 c -1.0629,0.5905 -2.357,0.5805 -3.4102,-0.024 l -31.167,-17.315 c -1.1009,-0.6114 -1.7837,-1.7717 -1.7837,-3.0311 v -34.677 c 0,-1.2287 0.65017,-2.366 1.7091,-2.9891 l 0.05,-6e-4 0.0244,-0.042 z m 1.6843,33.741 -24.069,-13.372 24.069,-13.371 24.069,13.372 z m -27.742,-7.4781 v 26.743 l 24.274,13.486 v -26.743 z m 31.209,13.486 v 26.743 l 24.274,-13.486 v -26.743 z"
     clip-rule="evenodd"
     fill="#ffffff"
     fill-rule="evenodd"
     stroke-width="3.4677"
     id="path340" /><path
     d="m 909.77051,1711.3921 v -31.873 c 0,-26.561 -10.624,-37.185 -37.185,-37.185 h -31.873 c -26.561,0 -37.185,10.624 -37.185,37.185 v 31.873 c 0,26.561 10.624,37.185 37.185,37.185 h 31.873 c 26.561,0 37.185,-10.624 37.185,-37.185 z"
     fill="none"
     stroke="#ffffff"
     stroke-linecap="round"
     stroke-linejoin="round"
     stroke-width="7.9683"
     id="path342" /><text
     x="824.0752"
     y="1786.8589"
     fill="#2f3435"
     font-family="Nunito"
     font-size="33.606px"
     font-weight="900"
     stroke="#ffffff"
     stroke-linecap="round"
     stroke-linejoin="round"
     stroke-width="1.9846"
     style="paint-order:stroke fill markers"
     xml:space="preserve"
     id="text348"><tspan
       x="824.0752"
       y="1786.8589"
       fill="#ffffff"
       stroke="none"
       stroke-width="1.9846"
       id="tspan346">Xnb</tspan></text><text
     x="364.76334"
     y="1613.6064"
     fill="#ffffff"
     font-family="Nunito"
     font-size="46.281px"
     font-weight="900"
     stroke-linecap="round"
     stroke-linejoin="round"
     stroke-width="8.1994"
     style="paint-order:stroke fill markers"
     xml:space="preserve"
     id="text360"><tspan
       x="364.76334"
       y="1613.6064"
       stroke-width="8.1994"
       id="tspan358">Compiled Assets</tspan></text><g
     transform="translate(133.63051,-69.987885)"
     id="g394"><g
       transform="matrix(2.2328,0,0,2.2328,-45.695,-898.89)"
       id="g368"><path
         transform="matrix(-0.45672,0,0,-0.44545,139.95,1403.8)"
         d="m 174.71,239.14 h -26.568 -26.568 l 26.568,-46.017 13.284,23.008 z"
         fill="#f6ffff"
         id="path364" /><path
         d="m 72.358,1242.2 v 68.993"
         fill="none"
         stroke="#ffffff"
         stroke-linecap="round"
         stroke-width="3"
         style="paint-order:normal"
         id="path366" /></g><g
       transform="matrix(2.2328,0,0,2.2328,105,-898.89)"
       id="g374"><path
         transform="matrix(-0.45672,0,0,-0.44545,139.95,1403.8)"
         d="m 174.71,239.14 h -26.568 -26.568 l 26.568,-46.017 13.284,23.008 z"
         fill="#f6ffff"
         id="path370" /><path
         d="m 71.521,1242.2 v 68.993"
         fill="none"
         stroke="#ffffff"
         stroke-linecap="round"
         stroke-width="3"
         style="paint-order:normal"
         id="path372" /></g><g
       transform="matrix(2.2328,0,0,2.2328,246,-898.89)"
       id="g380"><path
         transform="matrix(-0.45672,0,0,-0.44545,142.93,1403.8)"
         d="m 174.71,239.14 h -26.568 -26.568 l 26.568,-46.017 13.284,23.008 z"
         fill="#f6ffff"
         id="path376" /><path
         d="m 75.275,1242.2 v 68.993"
         fill="none"
         stroke="#ffffff"
         stroke-linecap="round"
         stroke-width="3"
         style="paint-order:normal"
         id="path378" /></g><g
       transform="matrix(2.2328,0,0,2.2328,404.51,-898.89)"
       id="g386"><path
         transform="matrix(-0.45672,0,0,-0.44545,139.95,1403.8)"
         d="m 174.71,239.14 h -26.568 -26.568 l 26.568,-46.017 13.284,23.008 z"
         fill="#f6ffff"
         id="path382" /><path
         d="m 72.358,1242.2 v 68.993"
         fill="none"
         stroke="#ffffff"
         stroke-linecap="round"
         stroke-width="3"
         style="paint-order:normal"
         id="path384" /></g><g
       transform="matrix(2.2328,0,0,2.2328,561.48,-898.89)"
       id="g392"><path
         transform="matrix(-0.45672,0,0,-0.44545,139.95,1403.8)"
         d="m 174.71,239.14 h -26.568 -26.568 l 26.568,-46.017 13.284,23.008 z"
         fill="#f6ffff"
         id="path388" /><path
         d="m 72.358,1242.2 v 68.993"
         fill="none"
         stroke="#ffffff"
         stroke-linecap="round"
         stroke-width="3"
         style="paint-order:normal"
         id="path390" /></g></g><rect
     x="198.91907"
     y="1999.1971"
     width="706.84003"
     height="99.775002"
     rx="15.328"
     ry="15.328"
     fill="#e73c00"
     stroke="#ffffff"
     stroke-width="11.339"
     style="stroke-linecap:round;stroke-linejoin:round;paint-order:stroke fill markers"
     id="rect484" /><text
     x="415.37549"
     y="2057.9065"
     fill="#2f3435"
     font-family="Nunito"
     font-size="33.606px"
     font-weight="900"
     stroke="#ffffff"
     stroke-width="1.9846"
     style="stroke-linecap:round;stroke-linejoin:round;paint-order:stroke fill markers"
     xml:space="preserve"
     id="text488"><tspan
       x="415.37549"
       y="2057.9065"
       fill="#ffffff"
       stroke="none"
       stroke-width="1.9846"
       id="tspan486">ContentManager</tspan></text><text
     transform="translate(400.52447,122.96753)"
     fill="#969696"
     font-family="Nunito"
     font-size="37.333px"
     font-weight="900"
     stop-color="#000000"
     stroke-linecap="round"
     stroke-linejoin="round"
     stroke-width="2"
     style="white-space:pre;shape-inside:url(#rect77144-2);display:inline;paint-order:stroke fill markers"
     xml:space="preserve"
     id="text496"><tspan
       x="0"
       y="0"
       id="tspan5728">High-Level View </tspan></text><text
     transform="matrix(1.5693,0,0,1.5693,509.63818,345.46283)"
     font-family="Nunito"
     font-size="37.333px"
     font-weight="900"
     stop-color="#000000"
     stroke="#ffffff"
     stroke-width="8.64"
     text-align="center"
     style="white-space:pre;shape-inside:url(#rect6463);display:inline;paint-order:stroke fill markers"
     xml:space="preserve"
     id="text168"><tspan
       x="0"
       y="0"
       id="tspan5732"><tspan
         style="fill:#ffffff;stroke:none"
         id="tspan5730">Aa</tspan></tspan></text><text
     transform="matrix(1.5693,0,0,1.5693,509.76091,1719.5048)"
     font-family="Nunito"
     font-size="37.333px"
     font-weight="900"
     stop-color="#000000"
     stroke="#ffffff"
     stroke-width="8.64"
     text-align="center"
     style="white-space:pre;shape-inside:url(#rect6463);display:inline;paint-order:stroke fill markers"
     xml:space="preserve"
     id="text168-5"><tspan
       x="0"
       y="0"
       id="tspan5736"><tspan
         style="fill:#ffffff;stroke:none"
         id="tspan5734">Aa</tspan></tspan></text></svg>
